<svg width="12" height="16" viewBox="0 0 12 16" fill="none" xmlns="http://www.w3.org/2000/svg">
<path d="M8.74609 4.19189C8.88216 4.19189 9.1141 4.21354 9.44189 4.25684C9.76969 4.30013 10.1284 4.42383 10.5181 4.62793C10.9139 4.82585 11.2726 5.15674 11.5942 5.62061C11.5757 5.63916 11.486 5.70719 11.3252 5.82471C11.1644 5.93604 10.985 6.10303 10.7871 6.32568C10.5892 6.54215 10.416 6.82048 10.2676 7.16064C10.1191 7.49463 10.0449 7.89355 10.0449 8.35742C10.0449 8.88932 10.1377 9.34082 10.3232 9.71191C10.515 10.083 10.7345 10.383 10.9819 10.6118C11.2355 10.8345 11.4582 10.9984 11.6499 11.1035C11.8478 11.2087 11.953 11.2643 11.9653 11.2705C11.9591 11.2952 11.8787 11.5148 11.7241 11.9292C11.5757 12.3436 11.3283 12.8044 10.9819 13.3115C10.6789 13.7507 10.3511 14.1558 9.99854 14.5269C9.65218 14.8979 9.2347 15.0835 8.74609 15.0835C8.41829 15.0835 8.14925 15.0371 7.93896 14.9443C7.72868 14.8454 7.51221 14.7495 7.28955 14.6567C7.06689 14.5578 6.76693 14.5083 6.38965 14.5083C6.02474 14.5083 5.71859 14.5578 5.47119 14.6567C5.22998 14.7557 4.99805 14.8547 4.77539 14.9536C4.55892 15.0526 4.30225 15.1021 4.00537 15.1021C3.55387 15.1021 3.15804 14.9227 2.81787 14.564C2.4777 14.2052 2.12826 13.7754 1.76953 13.2744C1.35514 12.6807 0.999512 11.957 0.702637 11.1035C0.411947 10.2438 0.266602 9.37793 0.266602 8.50586C0.266602 7.57194 0.442871 6.78955 0.79541 6.15869C1.14795 5.52165 1.59945 5.04232 2.1499 4.7207C2.70654 4.3929 3.28174 4.229 3.87549 4.229C4.19092 4.229 4.48779 4.28158 4.76611 4.38672C5.04443 4.48568 5.3042 4.58773 5.54541 4.69287C5.79281 4.79801 6.01546 4.85059 6.21338 4.85059C6.40511 4.85059 6.62777 4.79492 6.88135 4.68359C7.13493 4.57227 7.41943 4.46403 7.73486 4.35889C8.05029 4.24756 8.38737 4.19189 8.74609 4.19189ZM8.23584 3.01367C7.99463 3.30436 7.69157 3.54867 7.32666 3.74658C6.96175 3.93831 6.6154 4.03418 6.2876 4.03418C6.21956 4.03418 6.15462 4.02799 6.09277 4.01562C6.08659 3.99707 6.0804 3.96305 6.07422 3.91357C6.06803 3.8641 6.06494 3.81152 6.06494 3.75586C6.06494 3.38477 6.14535 3.02604 6.30615 2.67969C6.46696 2.32715 6.64941 2.03646 6.85352 1.80762C7.11328 1.49837 7.44108 1.2417 7.83691 1.0376C8.23275 0.833496 8.61003 0.72526 8.96875 0.712891C8.9873 0.793294 8.99658 0.88916 8.99658 1.00049C8.99658 1.37158 8.92546 1.7334 8.7832 2.08594C8.64095 2.43229 8.4585 2.74154 8.23584 3.01367Z" fill="white"/>
</svg>
