<svg width="335" height="62" viewBox="0 0 335 62" fill="none" xmlns="http://www.w3.org/2000/svg">
<g filter="url(#filter0_d_2860_6798)">
<rect x="4" width="327" height="54" rx="6" fill="black" shape-rendering="crispEdges"/>
<path d="M122.746 22.6919C122.882 22.6919 123.114 22.7135 123.442 22.7568C123.77 22.8001 124.128 22.9238 124.518 23.1279C124.914 23.3258 125.273 23.6567 125.594 24.1206C125.576 24.1392 125.486 24.2072 125.325 24.3247C125.164 24.436 124.985 24.603 124.787 24.8257C124.589 25.0422 124.416 25.3205 124.268 25.6606C124.119 25.9946 124.045 26.3936 124.045 26.8574C124.045 27.3893 124.138 27.8408 124.323 28.2119C124.515 28.583 124.735 28.883 124.982 29.1118C125.236 29.3345 125.458 29.4984 125.65 29.6035C125.848 29.7087 125.953 29.7643 125.965 29.7705C125.959 29.7952 125.879 30.0148 125.724 30.4292C125.576 30.8436 125.328 31.3044 124.982 31.8115C124.679 32.2507 124.351 32.6558 123.999 33.0269C123.652 33.3979 123.235 33.5835 122.746 33.5835C122.418 33.5835 122.149 33.5371 121.939 33.4443C121.729 33.3454 121.512 33.2495 121.29 33.1567C121.067 33.0578 120.767 33.0083 120.39 33.0083C120.025 33.0083 119.719 33.0578 119.471 33.1567C119.23 33.2557 118.998 33.3547 118.775 33.4536C118.559 33.5526 118.302 33.6021 118.005 33.6021C117.554 33.6021 117.158 33.4227 116.818 33.064C116.478 32.7052 116.128 32.2754 115.77 31.7744C115.355 31.1807 115 30.457 114.703 29.6035C114.412 28.7438 114.267 27.8779 114.267 27.0059C114.267 26.0719 114.443 25.2896 114.795 24.6587C115.148 24.0216 115.599 23.5423 116.15 23.2207C116.707 22.8929 117.282 22.729 117.875 22.729C118.191 22.729 118.488 22.7816 118.766 22.8867C119.044 22.9857 119.304 23.0877 119.545 23.1929C119.793 23.298 120.015 23.3506 120.213 23.3506C120.405 23.3506 120.628 23.2949 120.881 23.1836C121.135 23.0723 121.419 22.964 121.735 22.8589C122.05 22.7476 122.387 22.6919 122.746 22.6919ZM122.236 21.5137C121.995 21.8044 121.692 22.0487 121.327 22.2466C120.962 22.4383 120.615 22.5342 120.288 22.5342C120.22 22.5342 120.155 22.528 120.093 22.5156C120.087 22.4971 120.08 22.4631 120.074 22.4136C120.068 22.3641 120.065 22.3115 120.065 22.2559C120.065 21.8848 120.145 21.526 120.306 21.1797C120.467 20.8271 120.649 20.5365 120.854 20.3076C121.113 19.9984 121.441 19.7417 121.837 19.5376C122.233 19.3335 122.61 19.2253 122.969 19.2129C122.987 19.2933 122.997 19.3892 122.997 19.5005C122.997 19.8716 122.925 20.2334 122.783 20.5859C122.641 20.9323 122.458 21.2415 122.236 21.5137Z" fill="white"/>
<path d="M137.586 22.6406L134.188 32.5H132.133L136.414 21.125H137.727L137.586 22.6406ZM140.43 32.5L137.023 22.6406L136.875 21.125H138.195L142.492 32.5H140.43ZM140.266 28.2812V29.8359H134.078V28.2812H140.266ZM145.328 25.6719V35.75H143.445V24.0469H145.18L145.328 25.6719ZM150.836 28.1953V28.3594C150.836 28.974 150.763 29.5443 150.617 30.0703C150.477 30.5911 150.266 31.0469 149.984 31.4375C149.708 31.8229 149.367 32.1224 148.961 32.3359C148.555 32.5495 148.086 32.6562 147.555 32.6562C147.029 32.6562 146.568 32.5599 146.172 32.3672C145.781 32.1693 145.451 31.8906 145.18 31.5312C144.909 31.1719 144.69 30.75 144.523 30.2656C144.362 29.776 144.247 29.2396 144.18 28.6562V28.0234C144.247 27.4036 144.362 26.8411 144.523 26.3359C144.69 25.8307 144.909 25.3958 145.18 25.0312C145.451 24.6667 145.781 24.3854 146.172 24.1875C146.562 23.9896 147.018 23.8906 147.539 23.8906C148.07 23.8906 148.542 23.9948 148.953 24.2031C149.365 24.4062 149.711 24.6979 149.992 25.0781C150.273 25.4531 150.484 25.9062 150.625 26.4375C150.766 26.9635 150.836 27.5495 150.836 28.1953ZM148.953 28.3594V28.1953C148.953 27.8047 148.917 27.4427 148.844 27.1094C148.771 26.7708 148.656 26.474 148.5 26.2188C148.344 25.9635 148.143 25.7656 147.898 25.625C147.659 25.4792 147.37 25.4062 147.031 25.4062C146.698 25.4062 146.411 25.4635 146.172 25.5781C145.932 25.6875 145.732 25.8411 145.57 26.0391C145.409 26.237 145.284 26.4688 145.195 26.7344C145.107 26.9948 145.044 27.2786 145.008 27.5859V29.1016C145.07 29.4766 145.177 29.8203 145.328 30.1328C145.479 30.4453 145.693 30.6953 145.969 30.8828C146.25 31.0651 146.609 31.1562 147.047 31.1562C147.385 31.1562 147.674 31.0833 147.914 30.9375C148.154 30.7917 148.349 30.5911 148.5 30.3359C148.656 30.0755 148.771 29.776 148.844 29.4375C148.917 29.099 148.953 28.7396 148.953 28.3594ZM154.328 25.6719V35.75H152.445V24.0469H154.18L154.328 25.6719ZM159.836 28.1953V28.3594C159.836 28.974 159.763 29.5443 159.617 30.0703C159.477 30.5911 159.266 31.0469 158.984 31.4375C158.708 31.8229 158.367 32.1224 157.961 32.3359C157.555 32.5495 157.086 32.6562 156.555 32.6562C156.029 32.6562 155.568 32.5599 155.172 32.3672C154.781 32.1693 154.451 31.8906 154.18 31.5312C153.909 31.1719 153.69 30.75 153.523 30.2656C153.362 29.776 153.247 29.2396 153.18 28.6562V28.0234C153.247 27.4036 153.362 26.8411 153.523 26.3359C153.69 25.8307 153.909 25.3958 154.18 25.0312C154.451 24.6667 154.781 24.3854 155.172 24.1875C155.562 23.9896 156.018 23.8906 156.539 23.8906C157.07 23.8906 157.542 23.9948 157.953 24.2031C158.365 24.4062 158.711 24.6979 158.992 25.0781C159.273 25.4531 159.484 25.9062 159.625 26.4375C159.766 26.9635 159.836 27.5495 159.836 28.1953ZM157.953 28.3594V28.1953C157.953 27.8047 157.917 27.4427 157.844 27.1094C157.771 26.7708 157.656 26.474 157.5 26.2188C157.344 25.9635 157.143 25.7656 156.898 25.625C156.659 25.4792 156.37 25.4062 156.031 25.4062C155.698 25.4062 155.411 25.4635 155.172 25.5781C154.932 25.6875 154.732 25.8411 154.57 26.0391C154.409 26.237 154.284 26.4688 154.195 26.7344C154.107 26.9948 154.044 27.2786 154.008 27.5859V29.1016C154.07 29.4766 154.177 29.8203 154.328 30.1328C154.479 30.4453 154.693 30.6953 154.969 30.8828C155.25 31.0651 155.609 31.1562 156.047 31.1562C156.385 31.1562 156.674 31.0833 156.914 30.9375C157.154 30.7917 157.349 30.5911 157.5 30.3359C157.656 30.0755 157.771 29.776 157.844 29.4375C157.917 29.099 157.953 28.7396 157.953 28.3594ZM163.453 20.5V32.5H161.562V20.5H163.453ZM169.242 32.6562C168.617 32.6562 168.052 32.5547 167.547 32.3516C167.047 32.1432 166.62 31.8542 166.266 31.4844C165.917 31.1146 165.648 30.6797 165.461 30.1797C165.273 29.6797 165.18 29.1406 165.18 28.5625V28.25C165.18 27.5885 165.276 26.9896 165.469 26.4531C165.661 25.9167 165.93 25.4583 166.273 25.0781C166.617 24.6927 167.023 24.3984 167.492 24.1953C167.961 23.9922 168.469 23.8906 169.016 23.8906C169.62 23.8906 170.148 23.9922 170.602 24.1953C171.055 24.3984 171.43 24.6849 171.727 25.0547C172.029 25.4193 172.253 25.8542 172.398 26.3594C172.549 26.8646 172.625 27.4219 172.625 28.0312V28.8359H166.094V27.4844H170.766V27.3359C170.755 26.9974 170.688 26.6797 170.562 26.3828C170.443 26.0859 170.258 25.8464 170.008 25.6641C169.758 25.4818 169.424 25.3906 169.008 25.3906C168.695 25.3906 168.417 25.4583 168.172 25.5938C167.932 25.724 167.732 25.9141 167.57 26.1641C167.409 26.4141 167.284 26.7161 167.195 27.0703C167.112 27.4193 167.07 27.8125 167.07 28.25V28.5625C167.07 28.9323 167.12 29.276 167.219 29.5938C167.323 29.9062 167.474 30.1797 167.672 30.4141C167.87 30.6484 168.109 30.8333 168.391 30.9688C168.672 31.099 168.992 31.1641 169.352 31.1641C169.805 31.1641 170.208 31.0729 170.562 30.8906C170.917 30.7083 171.224 30.4505 171.484 30.1172L172.477 31.0781C172.294 31.3438 172.057 31.599 171.766 31.8438C171.474 32.0833 171.117 32.2786 170.695 32.4297C170.279 32.5807 169.794 32.6562 169.242 32.6562ZM177.909 30.868H191.013V31.972H177.909V30.868ZM183.765 27.764H185.093V31.332H183.765V27.764ZM179.493 20.356H189.397V24.74H180.853V27.636H179.541V23.668H188.085V21.428H179.493V20.356ZM179.541 27.076H189.733V28.164H179.541V27.076ZM194.036 20.82H203.348V21.892H194.036V20.82ZM192.628 30.532H205.7V31.636H192.628V30.532ZM202.644 20.82H203.94V22.26C203.94 24.116 203.94 26.18 203.396 29.3L202.068 29.172C202.644 26.212 202.644 24.052 202.644 22.26V20.82ZM217.859 19.3H219.203V29.86H217.859V19.3ZM209.907 32.34H219.635V33.428H209.907V32.34ZM209.907 28.772H211.219V32.708H209.907V28.772ZM211.443 20.292C213.603 20.292 215.203 21.764 215.203 23.86C215.203 25.94 213.603 27.428 211.443 27.428C209.283 27.428 207.667 25.94 207.667 23.86C207.667 21.764 209.283 20.292 211.443 20.292ZM211.443 21.444C210.035 21.444 208.963 22.436 208.963 23.86C208.963 25.268 210.035 26.26 211.443 26.26C212.851 26.26 213.923 25.268 213.923 23.86C213.923 22.436 212.851 21.444 211.443 21.444Z" fill="white"/>
</g>
<defs>
<filter id="filter0_d_2860_6798" x="0" y="0" width="335" height="62" filterUnits="userSpaceOnUse" color-interpolation-filters="sRGB">
<feFlood flood-opacity="0" result="BackgroundImageFix"/>
<feColorMatrix in="SourceAlpha" type="matrix" values="0 0 0 0 0 0 0 0 0 0 0 0 0 0 0 0 0 0 127 0" result="hardAlpha"/>
<feOffset dy="4"/>
<feGaussianBlur stdDeviation="2"/>
<feComposite in2="hardAlpha" operator="out"/>
<feColorMatrix type="matrix" values="0 0 0 0 0 0 0 0 0 0 0 0 0 0 0 0 0 0 0.25 0"/>
<feBlend mode="normal" in2="BackgroundImageFix" result="effect1_dropShadow_2860_6798"/>
<feBlend mode="normal" in="SourceGraphic" in2="effect1_dropShadow_2860_6798" result="shape"/>
</filter>
</defs>
</svg>
