<svg width="327" height="55" viewBox="0 0 327 55" fill="none" xmlns="http://www.w3.org/2000/svg">
<rect y="0.285156" width="327" height="54" rx="6" fill="black"/>
<path d="M112.531 22.0316C112.706 22.0316 113.004 22.0594 113.425 22.1151C113.847 22.1708 114.308 22.3298 114.809 22.5922C115.318 22.8467 115.779 23.2721 116.193 23.8685C116.169 23.8924 116.053 23.9798 115.847 24.1309C115.64 24.2741 115.409 24.4888 115.155 24.775C114.9 25.0534 114.678 25.4112 114.487 25.8486C114.296 26.278 114.201 26.7909 114.201 27.3873C114.201 28.0711 114.32 28.6516 114.558 29.1288C114.805 29.6059 115.087 29.9916 115.405 30.2858C115.731 30.5721 116.018 30.7828 116.264 30.918C116.519 31.0532 116.654 31.1247 116.67 31.1327C116.662 31.1645 116.558 31.4468 116.36 31.9796C116.169 32.5123 115.851 33.1048 115.405 33.7568C115.016 34.3214 114.594 34.8423 114.141 35.3194C113.696 35.7965 113.159 36.0351 112.531 36.0351C112.109 36.0351 111.763 35.9754 111.493 35.8562C111.223 35.7289 110.944 35.6057 110.658 35.4864C110.372 35.3592 109.986 35.2955 109.501 35.2955C109.032 35.2955 108.638 35.3592 108.32 35.4864C108.01 35.6136 107.712 35.7409 107.426 35.8681C107.147 35.9953 106.817 36.0589 106.435 36.0589C105.855 36.0589 105.346 35.8283 104.909 35.3671C104.471 34.9059 104.022 34.3532 103.561 33.7091C103.028 32.9457 102.571 32.0153 102.189 30.918C101.815 29.8126 101.628 28.6994 101.628 27.5781C101.628 26.3774 101.855 25.3714 102.308 24.5603C102.762 23.7413 103.342 23.125 104.05 22.7115C104.766 22.29 105.505 22.0793 106.268 22.0793C106.674 22.0793 107.056 22.1469 107.414 22.2821C107.771 22.4093 108.105 22.5405 108.416 22.6757C108.734 22.8109 109.02 22.8785 109.274 22.8785C109.521 22.8785 109.807 22.8069 110.133 22.6638C110.459 22.5206 110.825 22.3815 111.231 22.2463C111.636 22.1032 112.069 22.0316 112.531 22.0316ZM111.875 20.5167C111.565 20.8905 111.175 21.2046 110.706 21.4591C110.237 21.7056 109.791 21.8288 109.37 21.8288C109.282 21.8288 109.199 21.8209 109.119 21.805C109.111 21.7811 109.103 21.7374 109.095 21.6738C109.087 21.6101 109.083 21.5426 109.083 21.471C109.083 20.9939 109.187 20.5326 109.394 20.0873C109.6 19.6341 109.835 19.2603 110.097 18.9661C110.431 18.5685 110.853 18.2385 111.362 17.9761C111.871 17.7137 112.356 17.5745 112.817 17.5586C112.841 17.662 112.853 17.7852 112.853 17.9284C112.853 18.4055 112.761 18.8707 112.578 19.3239C112.396 19.7693 112.161 20.1669 111.875 20.5167Z" fill="white"/>
<path d="M128.586 22.9258L125.188 32.7852H123.133L127.414 21.4102H128.727L128.586 22.9258ZM131.43 32.7852L128.023 22.9258L127.875 21.4102H129.195L133.492 32.7852H131.43ZM131.266 28.5664V30.1211H125.078V28.5664H131.266ZM136.328 25.957V36.0352H134.445V24.332H136.18L136.328 25.957ZM141.836 28.4805V28.6445C141.836 29.2591 141.763 29.8294 141.617 30.3555C141.477 30.8763 141.266 31.332 140.984 31.7227C140.708 32.1081 140.367 32.4076 139.961 32.6211C139.555 32.8346 139.086 32.9414 138.555 32.9414C138.029 32.9414 137.568 32.8451 137.172 32.6523C136.781 32.4544 136.451 32.1758 136.18 31.8164C135.909 31.457 135.69 31.0352 135.523 30.5508C135.362 30.0612 135.247 29.5247 135.18 28.9414V28.3086C135.247 27.6888 135.362 27.1263 135.523 26.6211C135.69 26.1159 135.909 25.681 136.18 25.3164C136.451 24.9518 136.781 24.6706 137.172 24.4727C137.562 24.2747 138.018 24.1758 138.539 24.1758C139.07 24.1758 139.542 24.2799 139.953 24.4883C140.365 24.6914 140.711 24.9831 140.992 25.3633C141.273 25.7383 141.484 26.1914 141.625 26.7227C141.766 27.2487 141.836 27.8346 141.836 28.4805ZM139.953 28.6445V28.4805C139.953 28.0898 139.917 27.7279 139.844 27.3945C139.771 27.056 139.656 26.7591 139.5 26.5039C139.344 26.2487 139.143 26.0508 138.898 25.9102C138.659 25.7643 138.37 25.6914 138.031 25.6914C137.698 25.6914 137.411 25.7487 137.172 25.8633C136.932 25.9727 136.732 26.1263 136.57 26.3242C136.409 26.5221 136.284 26.7539 136.195 27.0195C136.107 27.2799 136.044 27.5638 136.008 27.8711V29.3867C136.07 29.7617 136.177 30.1055 136.328 30.418C136.479 30.7305 136.693 30.9805 136.969 31.168C137.25 31.3503 137.609 31.4414 138.047 31.4414C138.385 31.4414 138.674 31.3685 138.914 31.2227C139.154 31.0768 139.349 30.8763 139.5 30.6211C139.656 30.3607 139.771 30.0612 139.844 29.7227C139.917 29.3841 139.953 29.0247 139.953 28.6445ZM145.328 25.957V36.0352H143.445V24.332H145.18L145.328 25.957ZM150.836 28.4805V28.6445C150.836 29.2591 150.763 29.8294 150.617 30.3555C150.477 30.8763 150.266 31.332 149.984 31.7227C149.708 32.1081 149.367 32.4076 148.961 32.6211C148.555 32.8346 148.086 32.9414 147.555 32.9414C147.029 32.9414 146.568 32.8451 146.172 32.6523C145.781 32.4544 145.451 32.1758 145.18 31.8164C144.909 31.457 144.69 31.0352 144.523 30.5508C144.362 30.0612 144.247 29.5247 144.18 28.9414V28.3086C144.247 27.6888 144.362 27.1263 144.523 26.6211C144.69 26.1159 144.909 25.681 145.18 25.3164C145.451 24.9518 145.781 24.6706 146.172 24.4727C146.562 24.2747 147.018 24.1758 147.539 24.1758C148.07 24.1758 148.542 24.2799 148.953 24.4883C149.365 24.6914 149.711 24.9831 149.992 25.3633C150.273 25.7383 150.484 26.1914 150.625 26.7227C150.766 27.2487 150.836 27.8346 150.836 28.4805ZM148.953 28.6445V28.4805C148.953 28.0898 148.917 27.7279 148.844 27.3945C148.771 27.056 148.656 26.7591 148.5 26.5039C148.344 26.2487 148.143 26.0508 147.898 25.9102C147.659 25.7643 147.37 25.6914 147.031 25.6914C146.698 25.6914 146.411 25.7487 146.172 25.8633C145.932 25.9727 145.732 26.1263 145.57 26.3242C145.409 26.5221 145.284 26.7539 145.195 27.0195C145.107 27.2799 145.044 27.5638 145.008 27.8711V29.3867C145.07 29.7617 145.177 30.1055 145.328 30.418C145.479 30.7305 145.693 30.9805 145.969 31.168C146.25 31.3503 146.609 31.4414 147.047 31.4414C147.385 31.4414 147.674 31.3685 147.914 31.2227C148.154 31.0768 148.349 30.8763 148.5 30.6211C148.656 30.3607 148.771 30.0612 148.844 29.7227C148.917 29.3841 148.953 29.0247 148.953 28.6445ZM154.453 20.7852V32.7852H152.562V20.7852H154.453ZM160.242 32.9414C159.617 32.9414 159.052 32.8398 158.547 32.6367C158.047 32.4284 157.62 32.1393 157.266 31.7695C156.917 31.3997 156.648 30.9648 156.461 30.4648C156.273 29.9648 156.18 29.4258 156.18 28.8477V28.5352C156.18 27.8737 156.276 27.2747 156.469 26.7383C156.661 26.2018 156.93 25.7435 157.273 25.3633C157.617 24.9779 158.023 24.6836 158.492 24.4805C158.961 24.2773 159.469 24.1758 160.016 24.1758C160.62 24.1758 161.148 24.2773 161.602 24.4805C162.055 24.6836 162.43 24.9701 162.727 25.3398C163.029 25.7044 163.253 26.1393 163.398 26.6445C163.549 27.1497 163.625 27.707 163.625 28.3164V29.1211H157.094V27.7695H161.766V27.6211C161.755 27.2826 161.688 26.9648 161.562 26.668C161.443 26.3711 161.258 26.1315 161.008 25.9492C160.758 25.7669 160.424 25.6758 160.008 25.6758C159.695 25.6758 159.417 25.7435 159.172 25.8789C158.932 26.0091 158.732 26.1992 158.57 26.4492C158.409 26.6992 158.284 27.0013 158.195 27.3555C158.112 27.7044 158.07 28.0977 158.07 28.5352V28.8477C158.07 29.2174 158.12 29.5612 158.219 29.8789C158.323 30.1914 158.474 30.4648 158.672 30.6992C158.87 30.9336 159.109 31.1185 159.391 31.2539C159.672 31.3841 159.992 31.4492 160.352 31.4492C160.805 31.4492 161.208 31.3581 161.562 31.1758C161.917 30.9935 162.224 30.7357 162.484 30.4023L163.477 31.3633C163.294 31.6289 163.057 31.8841 162.766 32.1289C162.474 32.3685 162.117 32.5638 161.695 32.7148C161.279 32.8659 160.794 32.9414 160.242 32.9414ZM164.925 31.1532H178.029V32.2572H164.925V31.1532ZM170.781 28.0492H172.109V31.6172H170.781V28.0492ZM166.509 20.6412H176.413V25.0252H167.869V27.9212H166.557V23.9532H175.101V21.7132H166.509V20.6412ZM166.557 27.3612H176.749V28.4492H166.557V27.3612ZM183.628 31.1532H196.732V32.2572H183.628V31.1532ZM189.484 28.0492H190.812V31.6172H189.484V28.0492ZM185.212 20.6412H195.116V25.0252H186.572V27.9212H185.26V23.9532H193.804V21.7132H185.212V20.6412ZM185.26 27.3612H195.452V28.4492H185.26V27.3612ZM199.755 21.1052H209.067V22.1772H199.755V21.1052ZM198.347 30.8172H211.419V31.9212H198.347V30.8172ZM208.363 21.1052H209.659V22.5452C209.659 24.4012 209.659 26.4652 209.115 29.5852L207.787 29.4572C208.363 26.4972 208.363 24.3372 208.363 22.5452V21.1052ZM223.578 19.5852H224.922V30.1452H223.578V19.5852ZM215.626 32.6252H225.354V33.7132H215.626V32.6252ZM215.626 29.0572H216.938V32.9932H215.626V29.0572ZM217.162 20.5772C219.322 20.5772 220.922 22.0492 220.922 24.1452C220.922 26.2252 219.322 27.7132 217.162 27.7132C215.002 27.7132 213.386 26.2252 213.386 24.1452C213.386 22.0492 215.002 20.5772 217.162 20.5772ZM217.162 21.7292C215.754 21.7292 214.682 22.7212 214.682 24.1452C214.682 25.5532 215.754 26.5452 217.162 26.5452C218.57 26.5452 219.642 25.5532 219.642 24.1452C219.642 22.7212 218.57 21.7292 217.162 21.7292Z" fill="white"/>
</svg>
