<svg width="24" height="24" viewBox="0 0 24 24" fill="none" xmlns="http://www.w3.org/2000/svg">
<path d="M7.44875 12.9719L16.2742 21.3809C16.4215 21.5213 16.6171 21.5996 16.8206 21.5996C17.024 21.5996 17.2197 21.5213 17.3669 21.3809L17.3764 21.3714C17.4481 21.3034 17.5051 21.2215 17.5441 21.1307C17.5831 21.0399 17.6032 20.9421 17.6032 20.8433C17.6032 20.7445 17.5831 20.6467 17.5441 20.5559C17.5051 20.4651 17.4481 20.3832 17.3764 20.3151L9.06562 12.3971L17.3764 4.48215C17.4481 4.4141 17.5051 4.33219 17.5441 4.24139C17.5831 4.1506 17.6032 4.05282 17.6032 3.95402C17.6032 3.85521 17.5831 3.75744 17.5441 3.66664C17.5051 3.57585 17.4481 3.49393 17.3764 3.42588L17.3669 3.41638C17.2197 3.276 17.024 3.19769 16.8206 3.19769C16.6171 3.19769 16.4215 3.276 16.2742 3.41638L7.44875 11.8254C7.37113 11.8993 7.30934 11.9883 7.26712 12.0868C7.2249 12.1854 7.20313 12.2914 7.20313 12.3986C7.20313 12.5059 7.2249 12.6119 7.26712 12.7105C7.30934 12.809 7.37113 12.898 7.44875 12.9719Z" fill="#111111"/>
</svg>
