<svg width="11" height="19" viewBox="0 0 11 19" fill="none" xmlns="http://www.w3.org/2000/svg">
<path d="M0.448746 9.97192L9.27424 18.3809C9.42149 18.5213 9.61714 18.5996 9.82058 18.5996C10.024 18.5996 10.2197 18.5213 10.3669 18.3809L10.3764 18.3714C10.4481 18.3034 10.5051 18.2215 10.5441 18.1307C10.5831 18.0399 10.6032 17.9421 10.6032 17.8433C10.6032 17.7445 10.5831 17.6467 10.5441 17.5559C10.5051 17.4651 10.4481 17.3832 10.3764 17.3151L2.06562 9.39706L10.3764 1.48215C10.4481 1.4141 10.5051 1.33219 10.5441 1.24139C10.5831 1.1506 10.6032 1.05282 10.6032 0.954017C10.6032 0.85521 10.5831 0.757436 10.5441 0.666643C10.5051 0.575849 10.4481 0.493935 10.3764 0.425882L10.3669 0.416379C10.2197 0.276 10.024 0.197688 9.82059 0.197688C9.61714 0.197688 9.4215 0.276 9.27424 0.416379L0.448746 8.82538C0.371129 8.89933 0.309338 8.98827 0.267117 9.08681C0.224897 9.18535 0.203126 9.29144 0.203126 9.39865C0.203126 9.50585 0.224897 9.61194 0.267117 9.71048C0.309338 9.80903 0.371129 9.89797 0.448746 9.97192Z" fill="#111111"/>
</svg>
