<svg width="10" height="10" viewBox="0 0 10 10" fill="none" xmlns="http://www.w3.org/2000/svg">
<path d="M5.22775 6.63744L8.5465 3.15431C8.60191 3.09619 8.63281 3.01898 8.63281 2.93869C8.63281 2.85839 8.60191 2.78118 8.5465 2.72306L8.54275 2.71931C8.51589 2.69104 8.48357 2.66853 8.44773 2.65314C8.4119 2.63776 8.37331 2.62983 8.33432 2.62983C8.29532 2.62983 8.25673 2.63776 8.2209 2.65314C8.18507 2.66853 8.15274 2.69104 8.12588 2.71931L5.00088 5.99931L1.87713 2.71931C1.85027 2.69104 1.81794 2.66853 1.78211 2.65314C1.74627 2.63776 1.70769 2.62983 1.66869 2.62983C1.62969 2.62983 1.59111 2.63776 1.55527 2.65314C1.51944 2.66853 1.48711 2.69104 1.46025 2.71931L1.4565 2.72306C1.4011 2.78118 1.37019 2.85839 1.37019 2.93869C1.37019 3.01898 1.4011 3.09619 1.4565 3.15431L4.77525 6.63744C4.80444 6.66807 4.83954 6.69246 4.87843 6.70912C4.91732 6.72578 4.95919 6.73437 5.0015 6.73437C5.04381 6.73437 5.08568 6.72578 5.12457 6.70912C5.16347 6.69246 5.19857 6.66807 5.22775 6.63744Z" fill="#6B6B6B"/>
</svg>
