<svg width="21" height="20" viewBox="0 0 21 20" fill="none" xmlns="http://www.w3.org/2000/svg">
<path d="M14.2953 10.1897L6.94074 3.18224C6.81802 3.06526 6.65499 3 6.48545 3C6.31591 3 6.15287 3.06526 6.03016 3.18224L6.02224 3.19016C5.96255 3.24687 5.91501 3.31513 5.88253 3.39079C5.85005 3.46646 5.8333 3.54793 5.8333 3.63027C5.8333 3.71261 5.85005 3.79409 5.88253 3.86975C5.91501 3.94541 5.96255 4.01367 6.02224 4.07039L12.9479 10.6688L6.02224 17.2645C5.96255 17.3213 5.91501 17.3895 5.88253 17.4652C5.85005 17.5408 5.8333 17.6223 5.8333 17.7047C5.8333 17.787 5.85005 17.8685 5.88253 17.9441C5.91501 18.0198 5.96255 18.0881 6.02224 18.1448L6.03016 18.1527C6.15287 18.2697 6.31591 18.3349 6.48545 18.3349C6.65499 18.3349 6.81802 18.2697 6.94074 18.1527L14.2953 11.1452C14.36 11.0836 14.4115 11.0094 14.4467 10.9273C14.4819 10.8452 14.5 10.7568 14.5 10.6675C14.5 10.5781 14.4819 10.4897 14.4467 10.4076C14.4115 10.3255 14.36 10.2514 14.2953 10.1897Z" fill="#111111"/>
</svg>
