<svg width="24" height="24" viewBox="0 0 24 24" fill="none" xmlns="http://www.w3.org/2000/svg">
<path d="M7.24562 12.9719L16.0711 21.3809C16.2184 21.5213 16.414 21.5996 16.6175 21.5996C16.8209 21.5996 17.0165 21.5213 17.1638 21.3809L17.1733 21.3714C17.2449 21.3034 17.302 21.2215 17.341 21.1307C17.3799 21.0399 17.4 20.9421 17.4 20.8433C17.4 20.7445 17.3799 20.6467 17.341 20.5559C17.302 20.4651 17.2449 20.3832 17.1733 20.3151L8.86249 12.3971L17.1733 4.48215C17.2449 4.4141 17.302 4.33219 17.341 4.24139C17.3799 4.1506 17.4 4.05282 17.4 3.95402C17.4 3.85521 17.3799 3.75744 17.341 3.66664C17.302 3.57585 17.2449 3.49393 17.1733 3.42588L17.1638 3.41638C17.0166 3.276 16.8209 3.19769 16.6175 3.19769C16.414 3.19769 16.2184 3.276 16.0711 3.41638L7.24562 11.8254C7.168 11.8993 7.10621 11.9883 7.06399 12.0868C7.02177 12.1854 7 12.2914 7 12.3986C7 12.5059 7.02177 12.6119 7.06399 12.7105C7.10621 12.809 7.168 12.898 7.24562 12.9719Z" fill="#6B6B6B"/>
</svg>
