<svg width="31" height="30" viewBox="0 0 31 30" fill="none" xmlns="http://www.w3.org/2000/svg">
<path fill-rule="evenodd" clip-rule="evenodd" d="M2.5 13.3097C2.5 12.9924 2.65052 12.694 2.90564 12.5055L15.1587 3.44971C15.5177 3.18432 16.0092 3.18915 16.363 3.46152L28.11 12.505C28.3559 12.6944 28.5 12.9871 28.5 13.2974V27.0014C28.5 27.5536 28.0523 28.0014 27.5 28.0014H3.5C2.94772 28.0014 2.5 27.5536 2.5 27.0014V13.3097ZM16.5 24.002C17.0523 24.002 17.5 23.5542 17.5 23.002V17.002C17.5 16.4497 17.0523 16.002 16.5 16.002H14.5C13.9477 16.002 13.5 16.4497 13.5 17.002V23.002C13.5 23.5542 13.9477 24.002 14.5 24.002H16.5Z" fill="#A5A4AE"/>
</svg>
