<svg width="24" height="24" viewBox="0 0 24 24" fill="none" xmlns="http://www.w3.org/2000/svg">
<path fill-rule="evenodd" clip-rule="evenodd" d="M19.4037 17.6083C19.7927 16.6146 20.0063 15.533 20.0063 14.4016C20.0063 9.54146 16.0664 5.60156 11.2063 5.60156C6.34614 5.60156 2.40625 9.54146 2.40625 14.4016C2.40625 19.2617 6.34614 23.2016 11.2063 23.2016C13.0901 23.2016 14.8357 22.6096 16.2672 21.6016H20.3105C20.9251 21.6016 21.3102 20.9373 21.0048 20.404L19.4037 17.6083Z" fill="#8E48F8"/>
<ellipse cx="7.95758" cy="14.4016" rx="0.793515" ry="0.8" fill="white"/>
<ellipse cx="11.1295" cy="14.4016" rx="0.793515" ry="0.8" fill="white"/>
<ellipse cx="14.3091" cy="14.4016" rx="0.793515" ry="0.8" fill="white"/>
<rect x="18.6719" y="0.798828" width="1.86667" height="5.6" rx="0.4" fill="#8E48F8"/>
<rect x="22.4062" y="2.89844" width="1.86667" height="5.6" rx="0.4" transform="rotate(90 22.4062 2.89844)" fill="#8E48F8"/>
</svg>
