<svg width="31" height="30" viewBox="0 0 31 30" fill="none" xmlns="http://www.w3.org/2000/svg">
<path d="M15.5 28C12.3 28 11.5 24.6667 11.5 23H19.5C19.5 24.6667 18.7 28 15.5 28Z" stroke="#A5A4AE" stroke-width="2"/>
<mask id="path-2-inside-1_3684_8604" fill="white">
<path d="M3.5 15C3.5 8.37258 8.87258 3 15.5 3C22.1274 3 27.5 8.37258 27.5 15V23.3226C27.5 23.6967 27.1967 24 26.8226 24H4.17742C3.80329 24 3.5 23.6967 3.5 23.3226V15Z"/>
</mask>
<path d="M3.5 15C3.5 8.37258 8.87258 3 15.5 3C22.1274 3 27.5 8.37258 27.5 15V23.3226C27.5 23.6967 27.1967 24 26.8226 24H4.17742C3.80329 24 3.5 23.6967 3.5 23.3226V15Z" fill="#A5A4AE" stroke="#A5A4AE" stroke-width="3" mask="url(#path-2-inside-1_3684_8604)"/>
</svg>
