<svg width="30" height="30" viewBox="0 0 30 30" fill="none" xmlns="http://www.w3.org/2000/svg">
<path d="M3.49219 17.8125C3.49219 24.043 8.54298 29.0938 14.7734 29.0938C21.0039 29.0938 26.0547 24.043 26.0547 17.8125C26.0547 11.582 21.0039 6.53125 14.7734 6.53125C8.54298 6.53125 3.49219 11.582 3.49219 17.8125Z" fill="#111111"/>
<rect x="6.1875" y="13.3164" width="17.3562" height="9.05539" rx="4.5277" fill="white"/>
<ellipse cx="0.997998" cy="1.00615" rx="0.997998" ry="1.00615" transform="matrix(-1 0 0 1 18.8438 16.5918)" fill="#111111"/>
<ellipse cx="0.997998" cy="1.00615" rx="0.997998" ry="1.00615" transform="matrix(-1 0 0 1 12.8203 16.5918)" fill="#111111"/>
<path d="M20.5234 8.03089L23.1646 4.25781" stroke="#111111" stroke-width="2.04824" stroke-linecap="round"/>
<path d="M8.82031 8.03089L6.17916 4.25781" stroke="#111111" stroke-width="2.04824" stroke-linecap="round"/>
<circle cx="23.1623" cy="4.26385" r="2.26385" fill="#111111"/>
<circle cx="2.26385" cy="2.26385" r="2.26385" transform="matrix(-1 0 0 1 8.44531 2)" fill="#111111"/>
</svg>
