<svg width="30" height="30" viewBox="0 0 30 30" fill="none" xmlns="http://www.w3.org/2000/svg">
<path d="M10 23C10 25 10.8 29 14 29C17.2 29 18 25 18 23" stroke="#111111" stroke-width="1.875"/>
<mask id="path-3-inside-1_3527_10403" fill="white">
<path d="M2 13.5C2 6.59644 7.59644 1 14.5 1V1C21.4036 1 27 6.59644 27 13.5V21.3226C27 21.6967 26.6967 22 26.3226 22H2.67742C2.30329 22 2 21.6967 2 21.3226V13.5Z"/>
</mask>
<path d="M2 13.5C2 6.59644 7.59644 1 14.5 1V1C21.4036 1 27 6.59644 27 13.5V21.3226C27 21.6967 26.6967 22 26.3226 22H2.67742C2.30329 22 2 21.6967 2 21.3226V13.5Z" stroke="#111111" stroke-width="3.75" mask="url(#path-3-inside-1_3527_10403)"/>
</svg>
