<svg width="19" height="18" viewBox="0 0 19 18" fill="none" xmlns="http://www.w3.org/2000/svg">
<path fill-rule="evenodd" clip-rule="evenodd" d="M1.7338 12.1967C1.33863 11.1873 1.12169 10.0886 1.12169 8.93916C1.12169 4.0022 5.12388 0 10.0608 0C14.9978 0 19 4.0022 19 8.93916C19 13.8761 14.9978 17.8783 10.0608 17.8783C8.14682 17.8783 6.3733 17.2768 4.91902 16.2524H0.813087C0.188778 16.2524 -0.202364 15.5777 0.107885 15.0359L1.7338 12.1967Z" fill="#8E48F8"/>
<ellipse cx="0.806063" cy="0.812651" rx="0.806063" ry="0.812651" transform="matrix(-1 0 0 1 14.9375 8.12695)" fill="white"/>
<ellipse cx="0.806063" cy="0.812651" rx="0.806063" ry="0.812651" transform="matrix(-1 0 0 1 10.0781 8.12695)" fill="white"/>
<path d="M14.125 13.002L8.43645 12.1893" stroke="white" stroke-width="0.812651" stroke-linecap="round"/>
</svg>
