<svg width="30" height="30" viewBox="0 0 30 30" fill="none" xmlns="http://www.w3.org/2000/svg">
<path d="M11.25 22.5C11.25 24.1667 12 27.5 15 27.5C18 27.5 18.75 24.1667 18.75 22.5" stroke="#111111" stroke-width="1.875"/>
<mask id="path-3-inside-1_3527_10403" fill="white">
<path d="M3.75 13.75C3.75 7.5368 8.7868 2.5 15 2.5V2.5C21.2132 2.5 26.25 7.5368 26.25 13.75V20.6452C26.25 20.9792 25.9792 21.25 25.6452 21.25H4.35484C4.0208 21.25 3.75 20.9792 3.75 20.6452V13.75Z"/>
</mask>
<path d="M3.75 13.75C3.75 7.5368 8.7868 2.5 15 2.5V2.5C21.2132 2.5 26.25 7.5368 26.25 13.75V20.6452C26.25 20.9792 25.9792 21.25 25.6452 21.25H4.35484C4.0208 21.25 3.75 20.9792 3.75 20.6452V13.75Z" stroke="#111111" stroke-width="3.75" mask="url(#path-3-inside-1_3527_10403)"/>
</svg>
