<svg width="24" height="24" viewBox="0 0 24 24" fill="none" xmlns="http://www.w3.org/2000/svg">
<path d="M9 18C9 19.3333 9.6 22 12 22C14.4 22 15 19.3333 15 18" stroke="#111111" stroke-width="1.5"/>
<mask id="path-2-inside-1_2187_5790" fill="white">
<path d="M3 11C3 6.02944 7.02944 2 12 2C16.9706 2 21 6.02944 21 11V16.5161C21 16.7834 20.7834 17 20.5161 17H3.48387C3.21664 17 3 16.7834 3 16.5161V11Z"/>
</mask>
<path d="M3 11C3 6.02944 7.02944 2 12 2C16.9706 2 21 6.02944 21 11V16.5161C21 16.7834 20.7834 17 20.5161 17H3.48387C3.21664 17 3 16.7834 3 16.5161V11Z" stroke="#111111" stroke-width="3" mask="url(#path-2-inside-1_2187_5790)"/>
</svg>
