<svg width="20" height="20" viewBox="0 0 20 20" fill="none" xmlns="http://www.w3.org/2000/svg">
<path fill-rule="evenodd" clip-rule="evenodd" d="M3.68168 2.97848C3.48642 2.78322 3.16983 2.78322 2.97457 2.97848C2.77931 3.17374 2.77931 3.49032 2.97457 3.68558L9.28769 9.9987L2.97457 16.3118C2.77931 16.5071 2.77931 16.8237 2.97457 17.0189C3.16983 17.2142 3.48642 17.2142 3.68168 17.0189L9.99479 10.7058L16.3079 17.0189C16.5032 17.2142 16.8197 17.2142 17.015 17.0189C17.2103 16.8237 17.2103 16.5071 17.015 16.3118L10.7019 9.9987L17.015 3.68558C17.2103 3.49032 17.2103 3.17374 17.015 2.97848C16.8197 2.78322 16.5032 2.78322 16.3079 2.97848L9.99479 9.29159L3.68168 2.97848Z" fill="#6B6B6B"/>
</svg>
