<svg width="326" height="54" viewBox="0 0 326 54" fill="none" xmlns="http://www.w3.org/2000/svg">
<rect width="326" height="54" rx="6" fill="#111111"/>
<path d="M122.688 20.0688H124.016V34.5648H122.688V20.0688ZM116.384 21.1888C118.528 21.1888 120.064 23.1568 120.064 26.2288C120.064 29.3168 118.528 31.2848 116.384 31.2848C114.256 31.2848 112.72 29.3168 112.72 26.2288C112.72 23.1568 114.256 21.1888 116.384 21.1888ZM116.384 22.3888C114.976 22.3888 113.984 23.8928 113.984 26.2288C113.984 28.5808 114.976 30.1168 116.384 30.1168C117.808 30.1168 118.784 28.5808 118.784 26.2288C118.784 23.8928 117.808 22.3888 116.384 22.3888ZM127.023 21.7488H132.543V30.6768H127.023V21.7488ZM131.295 22.8048H128.271V29.6208H131.295V22.8048ZM137.519 20.0848H138.799V34.5488H137.519V20.0848ZM131.871 25.5248H135.199V26.6288H131.871V25.5248ZM134.655 20.3888H135.919V33.8288H134.655V20.3888ZM144.878 20.6128C147.038 20.6128 148.622 21.9248 148.622 23.8288C148.622 25.7168 147.038 27.0288 144.878 27.0288C142.734 27.0288 141.15 25.7168 141.15 23.8288C141.15 21.9248 142.734 20.6128 144.878 20.6128ZM144.878 21.7008C143.486 21.7008 142.43 22.5808 142.43 23.8288C142.43 25.0768 143.486 25.9408 144.878 25.9408C146.286 25.9408 147.326 25.0768 147.326 23.8288C147.326 22.5808 146.286 21.7008 144.878 21.7008ZM151.342 20.0848H152.686V27.4928H151.342V20.0848ZM143.326 28.1968H152.686V31.7168H144.654V33.8928H143.358V30.7248H151.374V29.2688H143.326V28.1968ZM143.358 33.3008H153.166V34.3568H143.358V33.3008ZM155.148 31.6688H168.252V32.7728H155.148V31.6688ZM161.004 28.5648H162.332V32.1328H161.004V28.5648ZM156.732 21.1568H166.636V25.5408H158.092V28.4368H156.78V24.4688H165.324V22.2288H156.732V21.1568ZM156.78 27.8768H166.972V28.9648H156.78V27.8768ZM173.052 31.6688H186.156V32.7728H173.052V31.6688ZM178.908 28.5648H180.236V32.1328H178.908V28.5648ZM174.636 21.1568H184.54V25.5408H175.996V28.4368H174.684V24.4688H183.228V22.2288H174.636V21.1568ZM174.684 27.8768H184.876V28.9648H174.684V27.8768ZM188.778 21.6208H198.09V22.6928H188.778V21.6208ZM187.37 31.3328H200.442V32.4368H187.37V31.3328ZM197.386 21.6208H198.682V23.0608C198.682 24.9168 198.682 26.9808 198.138 30.1008L196.81 29.9728C197.386 27.0128 197.386 24.8528 197.386 23.0608V21.6208ZM212.201 20.1008H213.545V30.6608H212.201V20.1008ZM204.249 33.1408H213.977V34.2288H204.249V33.1408ZM204.249 29.5728H205.561V33.5088H204.249V29.5728ZM205.785 21.0928C207.945 21.0928 209.545 22.5648 209.545 24.6608C209.545 26.7408 207.945 28.2288 205.785 28.2288C203.625 28.2288 202.009 26.7408 202.009 24.6608C202.009 22.5648 203.625 21.0928 205.785 21.0928ZM205.785 22.2448C204.377 22.2448 203.305 23.2368 203.305 24.6608C203.305 26.0688 204.377 27.0608 205.785 27.0608C207.193 27.0608 208.265 26.0688 208.265 24.6608C208.265 23.2368 207.193 22.2448 205.785 22.2448Z" fill="white"/>
</svg>
