<svg width="30" height="30" viewBox="0 0 30 30" fill="none" xmlns="http://www.w3.org/2000/svg">
<path fill-rule="evenodd" clip-rule="evenodd" d="M2.04301 26.9692C2.04301 27.7055 2.81183 28.1893 3.47566 27.8708L27.4873 16.3477C28.2438 15.9847 28.2438 14.9076 27.4873 14.5446L3.47566 3.02155C2.81183 2.70298 2.04301 3.18679 2.04301 3.92311L2.04301 12.2813C2.04301 12.8336 2.49072 13.2813 3.04301 13.2813L10.9484 13.2813C11.5007 13.2813 11.9484 13.7291 11.9484 14.2813L11.9484 16.6072C11.9484 17.1595 11.5007 17.6072 10.9484 17.6072L3.04301 17.6072C2.49072 17.6072 2.04301 18.0549 2.04301 18.6072L2.04301 26.9692Z" fill="#A5A4AE"/>
</svg>
