<svg width="24" height="24" viewBox="0 0 24 24" fill="none" xmlns="http://www.w3.org/2000/svg">
<rect x="5.30125" y="0.4" width="18.9427" height="18.9427" rx="9.47136" transform="rotate(15 5.30125 0.4)" fill="white"/>
<rect x="5.30125" y="0.4" width="18.9427" height="18.9427" rx="9.47136" transform="rotate(15 5.30125 0.4)" stroke="#6B6B6B" stroke-width="0.653197"/>
<path d="M15.2577 6.74039C16.0387 5.95934 17.305 5.95934 18.0861 6.74039V6.74039C18.8671 7.52143 18.8671 8.78776 18.0861 9.56881L16.8066 10.8483C16.7322 10.9227 16.6116 10.9227 16.5372 10.8483L13.9781 8.28929C13.9037 8.2149 13.9037 8.0943 13.9781 8.01991L15.2577 6.74039Z" fill="#855DF7"/>
<path d="M12.8147 9.18336C13.081 8.91705 13.5128 8.91705 13.7791 9.18336L15.6431 11.0474C15.9094 11.3137 15.9094 11.7455 15.6431 12.0118L10.4596 17.1953C10.3804 17.2745 10.283 17.3329 10.176 17.3655L7.49616 18.1813C6.97423 18.3401 6.48633 17.8522 6.64521 17.3303L7.46098 14.6505C7.49358 14.5434 7.55202 14.446 7.63116 14.3669L12.8147 9.18336Z" fill="#855DF7"/>
</svg>
