<svg width="17" height="16" viewBox="0 0 17 16" fill="none" xmlns="http://www.w3.org/2000/svg">
<path d="M8.49948 15.6464C11.7203 15.6464 14.3661 13.094 14.3661 9.81806C14.3661 9.01393 14.3251 8.15193 13.8792 6.81198C13.7954 6.56023 13.7243 6.34968 13.6607 6.16824C13.4639 5.60601 12.3374 6.11954 11.928 6.55215C11.5758 6.92415 11.1561 6.35244 10.9972 5.86549C10.7119 4.99117 10.2524 3.82624 9.67985 2.9873C9.24304 2.34767 8.73545 1.8071 8.23876 1.34834C7.61917 0.77607 6.55085 1.26856 6.37971 2.09445C6.23529 2.79137 6.0328 3.45017 5.79495 3.89742C5.31153 4.80675 5.22079 4.84 4.61653 5.51662C4.01265 6.19324 3.73536 6.40249 3.23004 7.22382C2.72511 8.04515 2.63281 9.13909 2.63281 9.94321C2.63281 13.2192 5.27868 15.6464 8.49948 15.6464Z" fill="#8E48F8"/>
</svg>
