<svg width="18" height="18" viewBox="0 0 18 18" fill="none" xmlns="http://www.w3.org/2000/svg">
<path fill-rule="evenodd" clip-rule="evenodd" d="M17.64 9.20419C17.64 8.56601 17.5827 7.95237 17.4764 7.36328H9V10.8446H13.8436C13.635 11.9696 13.0009 12.9228 12.0477 13.561V15.8192H14.9564C16.6582 14.2524 17.64 11.9451 17.64 9.20419Z" fill="#4285F4"/>
<path fill-rule="evenodd" clip-rule="evenodd" d="M9.00366 18.0009C11.4337 18.0009 13.4709 17.195 14.96 15.8205L12.0514 13.5623C11.2455 14.1023 10.2146 14.4214 9.00366 14.4214C6.65957 14.4214 4.67548 12.8382 3.96776 10.7109H0.960938V13.0428C2.44185 15.9841 5.48548 18.0009 9.00366 18.0009Z" fill="#34A853"/>
<path fill-rule="evenodd" clip-rule="evenodd" d="M3.96409 10.7088C3.78409 10.1688 3.68182 9.59203 3.68182 8.99885C3.68182 8.40567 3.78409 7.82885 3.96409 7.28885V4.95703H0.957273C0.347727 6.17203 0 7.54658 0 8.99885C0 10.4511 0.347727 11.8257 0.957273 13.0407L3.96409 10.7088Z" fill="#FBBC05"/>
<path fill-rule="evenodd" clip-rule="evenodd" d="M9.00366 3.57954C10.325 3.57954 11.5114 4.03364 12.4441 4.92545L15.0255 2.34409C13.4668 0.891818 11.4296 0 9.00366 0C5.48548 0 2.44185 2.01682 0.960938 4.95818L3.96776 7.29C4.67548 5.16273 6.65957 3.57954 9.00366 3.57954Z" fill="#EA4335"/>
</svg>
