<svg width="327" height="55" viewBox="0 0 327 55" fill="none" xmlns="http://www.w3.org/2000/svg">
<rect y="0.285156" width="327" height="54" rx="6" fill="white"/>
<path fill-rule="evenodd" clip-rule="evenodd" d="M88.64 27.4893C88.64 26.8512 88.5827 26.2375 88.4764 25.6484H80V29.1298H84.8436C84.635 30.2548 84.0009 31.208 83.0477 31.8462V34.1043H85.9564C87.6582 32.5375 88.64 30.2303 88.64 27.4893Z" fill="#4285F4"/>
<path fill-rule="evenodd" clip-rule="evenodd" d="M80.0037 36.2861C82.4337 36.2861 84.4709 35.4802 85.96 34.1056L83.0514 31.8475C82.2455 32.3875 81.2146 32.7065 80.0037 32.7065C77.6596 32.7065 75.6755 31.1234 74.9678 28.9961H71.9609V31.3279C73.4418 34.2693 76.4855 36.2861 80.0037 36.2861Z" fill="#34A853"/>
<path fill-rule="evenodd" clip-rule="evenodd" d="M74.9641 28.996C74.7841 28.456 74.6818 27.8791 74.6818 27.286C74.6818 26.6928 74.7841 26.116 74.9641 25.576V23.2441H71.9573C71.3477 24.4591 71 25.8337 71 27.286C71 28.7382 71.3477 30.1128 71.9573 31.3278L74.9641 28.996Z" fill="#FBBC05"/>
<path fill-rule="evenodd" clip-rule="evenodd" d="M80.0037 21.8647C81.325 21.8647 82.5114 22.3188 83.4441 23.2106L86.0255 20.6292C84.4668 19.177 82.4296 18.2852 80.0037 18.2852C76.4855 18.2852 73.4418 20.302 71.9609 23.2433L74.9678 25.5752C75.6755 23.4479 77.6596 21.8647 80.0037 21.8647Z" fill="#EA4335"/>
<path d="M103.891 26.4727V30.8164C103.729 31.0299 103.477 31.2643 103.133 31.5195C102.794 31.7695 102.344 31.9857 101.781 32.168C101.219 32.3503 100.518 32.4414 99.6797 32.4414C98.9661 32.4414 98.3125 32.3216 97.7188 32.082C97.125 31.8372 96.612 31.4805 96.1797 31.0117C95.7526 30.543 95.4219 29.9727 95.1875 29.3008C94.9531 28.6237 94.8359 27.8529 94.8359 26.9883V26.1992C94.8359 25.3398 94.9427 24.5742 95.1562 23.9023C95.375 23.2253 95.6875 22.6523 96.0938 22.1836C96.5 21.7148 96.9896 21.3607 97.5625 21.1211C98.1406 20.8763 98.7943 20.7539 99.5234 20.7539C100.456 20.7539 101.227 20.9102 101.836 21.2227C102.451 21.5299 102.924 21.957 103.258 22.5039C103.591 23.0508 103.802 23.6758 103.891 24.3789H101.969C101.906 23.9831 101.784 23.6289 101.602 23.3164C101.424 23.0039 101.169 22.7591 100.836 22.582C100.508 22.3997 100.081 22.3086 99.5547 22.3086C99.1016 22.3086 98.7031 22.3945 98.3594 22.5664C98.0156 22.7383 97.7292 22.9909 97.5 23.3242C97.276 23.6576 97.1068 24.0638 96.9922 24.543C96.8776 25.0221 96.8203 25.569 96.8203 26.1836V26.9883C96.8203 27.6133 96.8854 28.168 97.0156 28.6523C97.151 29.1367 97.3438 29.5456 97.5938 29.8789C97.849 30.2122 98.1589 30.4648 98.5234 30.6367C98.888 30.8034 99.2995 30.8867 99.7578 30.8867C100.206 30.8867 100.573 30.8503 100.859 30.7773C101.146 30.6992 101.372 30.6081 101.539 30.5039C101.711 30.3945 101.844 30.2904 101.938 30.1914V27.9336H99.5703V26.4727H103.891ZM105.516 28.1523V27.9727C105.516 27.3633 105.604 26.7982 105.781 26.2773C105.958 25.7513 106.214 25.2956 106.547 24.9102C106.885 24.5195 107.297 24.2174 107.781 24.0039C108.271 23.7852 108.823 23.6758 109.438 23.6758C110.057 23.6758 110.609 23.7852 111.094 24.0039C111.583 24.2174 111.997 24.5195 112.336 24.9102C112.674 25.2956 112.932 25.7513 113.109 26.2773C113.286 26.7982 113.375 27.3633 113.375 27.9727V28.1523C113.375 28.7617 113.286 29.3268 113.109 29.8477C112.932 30.3685 112.674 30.8242 112.336 31.2148C111.997 31.6003 111.586 31.9023 111.102 32.1211C110.617 32.3346 110.068 32.4414 109.453 32.4414C108.833 32.4414 108.279 32.3346 107.789 32.1211C107.305 31.9023 106.893 31.6003 106.555 31.2148C106.216 30.8242 105.958 30.3685 105.781 29.8477C105.604 29.3268 105.516 28.7617 105.516 28.1523ZM107.398 27.9727V28.1523C107.398 28.5326 107.438 28.8919 107.516 29.2305C107.594 29.569 107.716 29.8659 107.883 30.1211C108.049 30.3763 108.263 30.5768 108.523 30.7227C108.784 30.8685 109.094 30.9414 109.453 30.9414C109.802 30.9414 110.104 30.8685 110.359 30.7227C110.62 30.5768 110.833 30.3763 111 30.1211C111.167 29.8659 111.289 29.569 111.367 29.2305C111.451 28.8919 111.492 28.5326 111.492 28.1523V27.9727C111.492 27.5977 111.451 27.2435 111.367 26.9102C111.289 26.5716 111.164 26.2721 110.992 26.0117C110.826 25.7513 110.612 25.5482 110.352 25.4023C110.096 25.2513 109.792 25.1758 109.438 25.1758C109.083 25.1758 108.776 25.2513 108.516 25.4023C108.26 25.5482 108.049 25.7513 107.883 26.0117C107.716 26.2721 107.594 26.5716 107.516 26.9102C107.438 27.2435 107.398 27.5977 107.398 27.9727ZM114.594 28.1523V27.9727C114.594 27.3633 114.682 26.7982 114.859 26.2773C115.036 25.7513 115.292 25.2956 115.625 24.9102C115.964 24.5195 116.375 24.2174 116.859 24.0039C117.349 23.7852 117.901 23.6758 118.516 23.6758C119.135 23.6758 119.688 23.7852 120.172 24.0039C120.661 24.2174 121.076 24.5195 121.414 24.9102C121.753 25.2956 122.01 25.7513 122.188 26.2773C122.365 26.7982 122.453 27.3633 122.453 27.9727V28.1523C122.453 28.7617 122.365 29.3268 122.188 29.8477C122.01 30.3685 121.753 30.8242 121.414 31.2148C121.076 31.6003 120.664 31.9023 120.18 32.1211C119.695 32.3346 119.146 32.4414 118.531 32.4414C117.911 32.4414 117.357 32.3346 116.867 32.1211C116.383 31.9023 115.971 31.6003 115.633 31.2148C115.294 30.8242 115.036 30.3685 114.859 29.8477C114.682 29.3268 114.594 28.7617 114.594 28.1523ZM116.477 27.9727V28.1523C116.477 28.5326 116.516 28.8919 116.594 29.2305C116.672 29.569 116.794 29.8659 116.961 30.1211C117.128 30.3763 117.341 30.5768 117.602 30.7227C117.862 30.8685 118.172 30.9414 118.531 30.9414C118.88 30.9414 119.182 30.8685 119.438 30.7227C119.698 30.5768 119.911 30.3763 120.078 30.1211C120.245 29.8659 120.367 29.569 120.445 29.2305C120.529 28.8919 120.57 28.5326 120.57 28.1523V27.9727C120.57 27.5977 120.529 27.2435 120.445 26.9102C120.367 26.5716 120.242 26.2721 120.07 26.0117C119.904 25.7513 119.69 25.5482 119.43 25.4023C119.174 25.2513 118.87 25.1758 118.516 25.1758C118.161 25.1758 117.854 25.2513 117.594 25.4023C117.339 25.5482 117.128 25.7513 116.961 26.0117C116.794 26.2721 116.672 26.5716 116.594 26.9102C116.516 27.2435 116.477 27.5977 116.477 27.9727ZM129.445 23.832H131.156V32.0508C131.156 32.8112 130.995 33.457 130.672 33.9883C130.349 34.5195 129.898 34.9232 129.32 35.1992C128.742 35.4805 128.073 35.6211 127.312 35.6211C126.99 35.6211 126.63 35.5742 126.234 35.4805C125.844 35.3867 125.464 35.2357 125.094 35.0273C124.729 34.8242 124.424 34.556 124.18 34.2227L125.062 33.1133C125.365 33.4727 125.698 33.7357 126.062 33.9023C126.427 34.069 126.81 34.1523 127.211 34.1523C127.643 34.1523 128.01 34.0716 128.312 33.9102C128.62 33.7539 128.857 33.5221 129.023 33.2148C129.19 32.9076 129.273 32.5326 129.273 32.0898V25.7461L129.445 23.832ZM123.703 28.1523V27.9883C123.703 27.3477 123.781 26.7643 123.938 26.2383C124.094 25.707 124.318 25.2513 124.609 24.8711C124.901 24.4857 125.255 24.1914 125.672 23.9883C126.089 23.7799 126.56 23.6758 127.086 23.6758C127.633 23.6758 128.099 23.7747 128.484 23.9727C128.875 24.1706 129.201 24.4544 129.461 24.8242C129.721 25.1888 129.924 25.6263 130.07 26.1367C130.221 26.6419 130.333 27.2044 130.406 27.8242V28.3477C130.339 28.9518 130.224 29.5039 130.062 30.0039C129.901 30.5039 129.688 30.9362 129.422 31.3008C129.156 31.6654 128.828 31.9466 128.438 32.1445C128.052 32.3424 127.596 32.4414 127.07 32.4414C126.555 32.4414 126.089 32.3346 125.672 32.1211C125.26 31.9076 124.906 31.6081 124.609 31.2227C124.318 30.8372 124.094 30.3841 123.938 29.8633C123.781 29.3372 123.703 28.7669 123.703 28.1523ZM125.586 27.9883V28.1523C125.586 28.5378 125.622 28.8971 125.695 29.2305C125.773 29.5638 125.891 29.8581 126.047 30.1133C126.208 30.3633 126.411 30.5612 126.656 30.707C126.906 30.8477 127.201 30.918 127.539 30.918C127.982 30.918 128.344 30.8242 128.625 30.6367C128.911 30.4492 129.13 30.1966 129.281 29.8789C129.438 29.556 129.547 29.1966 129.609 28.8008V27.3867C129.578 27.0794 129.513 26.793 129.414 26.5273C129.32 26.2617 129.193 26.0299 129.031 25.832C128.87 25.6289 128.667 25.4727 128.422 25.3633C128.177 25.2487 127.888 25.1914 127.555 25.1914C127.216 25.1914 126.922 25.2643 126.672 25.4102C126.422 25.556 126.216 25.7565 126.055 26.0117C125.898 26.2669 125.781 26.5638 125.703 26.9023C125.625 27.2409 125.586 27.6029 125.586 27.9883ZM135.125 20.2852V32.2852H133.234V20.2852H135.125ZM140.914 32.4414C140.289 32.4414 139.724 32.3398 139.219 32.1367C138.719 31.9284 138.292 31.6393 137.938 31.2695C137.589 30.8997 137.32 30.4648 137.133 29.9648C136.945 29.4648 136.852 28.9258 136.852 28.3477V28.0352C136.852 27.3737 136.948 26.7747 137.141 26.2383C137.333 25.7018 137.602 25.2435 137.945 24.8633C138.289 24.4779 138.695 24.1836 139.164 23.9805C139.633 23.7773 140.141 23.6758 140.688 23.6758C141.292 23.6758 141.82 23.7773 142.273 23.9805C142.727 24.1836 143.102 24.4701 143.398 24.8398C143.701 25.2044 143.924 25.6393 144.07 26.1445C144.221 26.6497 144.297 27.207 144.297 27.8164V28.6211H137.766V27.2695H142.438V27.1211C142.427 26.7826 142.359 26.4648 142.234 26.168C142.115 25.8711 141.93 25.6315 141.68 25.4492C141.43 25.2669 141.096 25.1758 140.68 25.1758C140.367 25.1758 140.089 25.2435 139.844 25.3789C139.604 25.5091 139.404 25.6992 139.242 25.9492C139.081 26.1992 138.956 26.5013 138.867 26.8555C138.784 27.2044 138.742 27.5977 138.742 28.0352V28.3477C138.742 28.7174 138.792 29.0612 138.891 29.3789C138.995 29.6914 139.146 29.9648 139.344 30.1992C139.542 30.4336 139.781 30.6185 140.062 30.7539C140.344 30.8841 140.664 30.9492 141.023 30.9492C141.477 30.9492 141.88 30.8581 142.234 30.6758C142.589 30.4935 142.896 30.2357 143.156 29.9023L144.148 30.8633C143.966 31.1289 143.729 31.3841 143.438 31.6289C143.146 31.8685 142.789 32.0638 142.367 32.2148C141.951 32.3659 141.466 32.4414 140.914 32.4414ZM155.181 23.0852H158.397V24.1572H155.181V23.0852ZM155.069 26.7172H158.365V27.7892H155.069V26.7172ZM160.589 19.0692H161.869V33.5332H160.589V19.0692ZM157.693 19.4372H158.941V32.7972H157.693V19.4372ZM154.461 20.8932H155.741C155.741 24.6852 154.221 28.0932 150.333 30.4132L149.565 29.4692C152.941 27.4212 154.461 24.5412 154.461 21.1332V20.8932ZM150.205 20.8932H154.989V21.9812H150.205V20.8932ZM172.012 22.8132H175.276V23.9172H172.012V22.8132ZM174.86 19.0692H176.188V27.6932H174.86V19.0692ZM171.436 28.1252C174.412 28.1252 176.252 29.1332 176.252 30.8292C176.252 32.5412 174.412 33.5172 171.436 33.5172C168.444 33.5172 166.604 32.5412 166.604 30.8292C166.604 29.1332 168.444 28.1252 171.436 28.1252ZM171.436 29.1652C169.26 29.1652 167.932 29.7732 167.932 30.8292C167.932 31.8692 169.26 32.4772 171.436 32.4772C173.612 32.4772 174.94 31.8692 174.94 30.8292C174.94 29.7732 173.612 29.1652 171.436 29.1652ZM167.98 20.5252H169.068V21.6932C169.068 24.3652 167.436 26.6532 165.036 27.5492L164.348 26.4932C166.492 25.7092 167.98 23.7732 167.98 21.6932V20.5252ZM168.236 20.5252H169.308V21.6932C169.308 23.5652 170.716 25.3572 172.812 26.0932L172.14 27.1492C169.788 26.3012 168.236 24.1252 168.236 21.6932V20.5252ZM164.748 20.1252H172.476V21.2132H164.748V20.1252ZM185.547 19.9812C188.555 19.9812 190.795 21.5812 190.795 23.9812C190.795 26.3972 188.555 27.9812 185.547 27.9812C182.539 27.9812 180.283 26.3972 180.283 23.9812C180.283 21.5812 182.539 19.9812 185.547 19.9812ZM185.547 21.0692C183.259 21.0692 181.563 22.2372 181.563 23.9812C181.563 25.7092 183.259 26.8932 185.547 26.8932C187.835 26.8932 189.531 25.7092 189.531 23.9812C189.531 22.2372 187.835 21.0692 185.547 21.0692ZM179.019 30.5092H192.123V31.6292H179.019V30.5092ZM193.738 30.6532H206.842V31.7572H193.738V30.6532ZM199.594 27.5492H200.922V31.1172H199.594V27.5492ZM195.322 20.1412H205.226V24.5252H196.682V27.4212H195.37V23.4532H203.914V21.2132H195.322V20.1412ZM195.37 26.8612H205.562V27.9492H195.37V26.8612ZM212.441 30.6532H225.545V31.7572H212.441V30.6532ZM218.297 27.5492H219.625V31.1172H218.297V27.5492ZM214.025 20.1412H223.929V24.5252H215.385V27.4212H214.073V23.4532H222.617V21.2132H214.025V20.1412ZM214.073 26.8612H224.265V27.9492H214.073V26.8612ZM228.567 20.6052H237.879V21.6772H228.567V20.6052ZM227.159 30.3172H240.231V31.4212H227.159V30.3172ZM237.175 20.6052H238.471V22.0452C238.471 23.9012 238.471 25.9652 237.927 29.0852L236.599 28.9572C237.175 25.9972 237.175 23.8372 237.175 22.0452V20.6052ZM252.39 19.0852H253.734V29.6452H252.39V19.0852ZM244.438 32.1252H254.166V33.2132H244.438V32.1252ZM244.438 28.5572H245.75V32.4932H244.438V28.5572ZM245.974 20.0772C248.134 20.0772 249.734 21.5492 249.734 23.6452C249.734 25.7252 248.134 27.2132 245.974 27.2132C243.814 27.2132 242.198 25.7252 242.198 23.6452C242.198 21.5492 243.814 20.0772 245.974 20.0772ZM245.974 21.2292C244.566 21.2292 243.494 22.2212 243.494 23.6452C243.494 25.0532 244.566 26.0452 245.974 26.0452C247.382 26.0452 248.454 25.0532 248.454 23.6452C248.454 22.2212 247.382 21.2292 245.974 21.2292Z" fill="#757575"/>
</svg>
