<svg width="327" height="54" viewBox="0 0 327 54" fill="none" xmlns="http://www.w3.org/2000/svg">
<rect width="327" height="54" rx="6" fill="white"/>
<path fill-rule="evenodd" clip-rule="evenodd" d="M88.64 27.2042C88.64 26.566 88.5827 25.9524 88.4764 25.3633H80V28.8446H84.8436C84.635 29.9696 84.0009 30.9228 83.0477 31.561V33.8192H85.9564C87.6582 32.2524 88.64 29.9451 88.64 27.2042Z" fill="#4285F4"/>
<path fill-rule="evenodd" clip-rule="evenodd" d="M80.0037 36.0009C82.4337 36.0009 84.4709 35.195 85.96 33.8205L83.0514 31.5623C82.2455 32.1023 81.2146 32.4214 80.0037 32.4214C77.6596 32.4214 75.6755 30.8382 74.9678 28.7109H71.9609V31.0428C73.4418 33.9841 76.4855 36.0009 80.0037 36.0009Z" fill="#34A853"/>
<path fill-rule="evenodd" clip-rule="evenodd" d="M74.9641 28.7088C74.7841 28.1688 74.6818 27.592 74.6818 26.9988C74.6818 26.4057 74.7841 25.8288 74.9641 25.2888V22.957H71.9573C71.3477 24.172 71 25.5466 71 26.9988C71 28.4511 71.3477 29.8257 71.9573 31.0407L74.9641 28.7088Z" fill="#FBBC05"/>
<path fill-rule="evenodd" clip-rule="evenodd" d="M80.0037 21.5795C81.325 21.5795 82.5114 22.0336 83.4441 22.9255L86.0255 20.3441C84.4668 18.8918 82.4296 18 80.0037 18C76.4855 18 73.4418 20.0168 71.9609 22.9582L74.9678 25.29C75.6755 23.1627 77.6596 21.5795 80.0037 21.5795Z" fill="#EA4335"/>
<path d="M103.891 26.1875V30.5312C103.729 30.7448 103.477 30.9792 103.133 31.2344C102.794 31.4844 102.344 31.7005 101.781 31.8828C101.219 32.0651 100.518 32.1562 99.6797 32.1562C98.9661 32.1562 98.3125 32.0365 97.7188 31.7969C97.125 31.5521 96.612 31.1953 96.1797 30.7266C95.7526 30.2578 95.4219 29.6875 95.1875 29.0156C94.9531 28.3385 94.8359 27.5677 94.8359 26.7031V25.9141C94.8359 25.0547 94.9427 24.2891 95.1562 23.6172C95.375 22.9401 95.6875 22.3672 96.0938 21.8984C96.5 21.4297 96.9896 21.0755 97.5625 20.8359C98.1406 20.5911 98.7943 20.4688 99.5234 20.4688C100.456 20.4688 101.227 20.625 101.836 20.9375C102.451 21.2448 102.924 21.6719 103.258 22.2188C103.591 22.7656 103.802 23.3906 103.891 24.0938H101.969C101.906 23.6979 101.784 23.3438 101.602 23.0312C101.424 22.7188 101.169 22.474 100.836 22.2969C100.508 22.1146 100.081 22.0234 99.5547 22.0234C99.1016 22.0234 98.7031 22.1094 98.3594 22.2812C98.0156 22.4531 97.7292 22.7057 97.5 23.0391C97.276 23.3724 97.1068 23.7786 96.9922 24.2578C96.8776 24.737 96.8203 25.2839 96.8203 25.8984V26.7031C96.8203 27.3281 96.8854 27.8828 97.0156 28.3672C97.151 28.8516 97.3438 29.2604 97.5938 29.5938C97.849 29.9271 98.1589 30.1797 98.5234 30.3516C98.888 30.5182 99.2995 30.6016 99.7578 30.6016C100.206 30.6016 100.573 30.5651 100.859 30.4922C101.146 30.4141 101.372 30.3229 101.539 30.2188C101.711 30.1094 101.844 30.0052 101.938 29.9062V27.6484H99.5703V26.1875H103.891ZM105.516 27.8672V27.6875C105.516 27.0781 105.604 26.513 105.781 25.9922C105.958 25.4661 106.214 25.0104 106.547 24.625C106.885 24.2344 107.297 23.9323 107.781 23.7188C108.271 23.5 108.823 23.3906 109.438 23.3906C110.057 23.3906 110.609 23.5 111.094 23.7188C111.583 23.9323 111.997 24.2344 112.336 24.625C112.674 25.0104 112.932 25.4661 113.109 25.9922C113.286 26.513 113.375 27.0781 113.375 27.6875V27.8672C113.375 28.4766 113.286 29.0417 113.109 29.5625C112.932 30.0833 112.674 30.5391 112.336 30.9297C111.997 31.3151 111.586 31.6172 111.102 31.8359C110.617 32.0495 110.068 32.1562 109.453 32.1562C108.833 32.1562 108.279 32.0495 107.789 31.8359C107.305 31.6172 106.893 31.3151 106.555 30.9297C106.216 30.5391 105.958 30.0833 105.781 29.5625C105.604 29.0417 105.516 28.4766 105.516 27.8672ZM107.398 27.6875V27.8672C107.398 28.2474 107.438 28.6068 107.516 28.9453C107.594 29.2839 107.716 29.5807 107.883 29.8359C108.049 30.0911 108.263 30.2917 108.523 30.4375C108.784 30.5833 109.094 30.6562 109.453 30.6562C109.802 30.6562 110.104 30.5833 110.359 30.4375C110.62 30.2917 110.833 30.0911 111 29.8359C111.167 29.5807 111.289 29.2839 111.367 28.9453C111.451 28.6068 111.492 28.2474 111.492 27.8672V27.6875C111.492 27.3125 111.451 26.9583 111.367 26.625C111.289 26.2865 111.164 25.987 110.992 25.7266C110.826 25.4661 110.612 25.263 110.352 25.1172C110.096 24.9661 109.792 24.8906 109.438 24.8906C109.083 24.8906 108.776 24.9661 108.516 25.1172C108.26 25.263 108.049 25.4661 107.883 25.7266C107.716 25.987 107.594 26.2865 107.516 26.625C107.438 26.9583 107.398 27.3125 107.398 27.6875ZM114.594 27.8672V27.6875C114.594 27.0781 114.682 26.513 114.859 25.9922C115.036 25.4661 115.292 25.0104 115.625 24.625C115.964 24.2344 116.375 23.9323 116.859 23.7188C117.349 23.5 117.901 23.3906 118.516 23.3906C119.135 23.3906 119.688 23.5 120.172 23.7188C120.661 23.9323 121.076 24.2344 121.414 24.625C121.753 25.0104 122.01 25.4661 122.188 25.9922C122.365 26.513 122.453 27.0781 122.453 27.6875V27.8672C122.453 28.4766 122.365 29.0417 122.188 29.5625C122.01 30.0833 121.753 30.5391 121.414 30.9297C121.076 31.3151 120.664 31.6172 120.18 31.8359C119.695 32.0495 119.146 32.1562 118.531 32.1562C117.911 32.1562 117.357 32.0495 116.867 31.8359C116.383 31.6172 115.971 31.3151 115.633 30.9297C115.294 30.5391 115.036 30.0833 114.859 29.5625C114.682 29.0417 114.594 28.4766 114.594 27.8672ZM116.477 27.6875V27.8672C116.477 28.2474 116.516 28.6068 116.594 28.9453C116.672 29.2839 116.794 29.5807 116.961 29.8359C117.128 30.0911 117.341 30.2917 117.602 30.4375C117.862 30.5833 118.172 30.6562 118.531 30.6562C118.88 30.6562 119.182 30.5833 119.438 30.4375C119.698 30.2917 119.911 30.0911 120.078 29.8359C120.245 29.5807 120.367 29.2839 120.445 28.9453C120.529 28.6068 120.57 28.2474 120.57 27.8672V27.6875C120.57 27.3125 120.529 26.9583 120.445 26.625C120.367 26.2865 120.242 25.987 120.07 25.7266C119.904 25.4661 119.69 25.263 119.43 25.1172C119.174 24.9661 118.87 24.8906 118.516 24.8906C118.161 24.8906 117.854 24.9661 117.594 25.1172C117.339 25.263 117.128 25.4661 116.961 25.7266C116.794 25.987 116.672 26.2865 116.594 26.625C116.516 26.9583 116.477 27.3125 116.477 27.6875ZM129.445 23.5469H131.156V31.7656C131.156 32.526 130.995 33.1719 130.672 33.7031C130.349 34.2344 129.898 34.638 129.32 34.9141C128.742 35.1953 128.073 35.3359 127.312 35.3359C126.99 35.3359 126.63 35.2891 126.234 35.1953C125.844 35.1016 125.464 34.9505 125.094 34.7422C124.729 34.5391 124.424 34.2708 124.18 33.9375L125.062 32.8281C125.365 33.1875 125.698 33.4505 126.062 33.6172C126.427 33.7839 126.81 33.8672 127.211 33.8672C127.643 33.8672 128.01 33.7865 128.312 33.625C128.62 33.4688 128.857 33.237 129.023 32.9297C129.19 32.6224 129.273 32.2474 129.273 31.8047V25.4609L129.445 23.5469ZM123.703 27.8672V27.7031C123.703 27.0625 123.781 26.4792 123.938 25.9531C124.094 25.4219 124.318 24.9661 124.609 24.5859C124.901 24.2005 125.255 23.9062 125.672 23.7031C126.089 23.4948 126.56 23.3906 127.086 23.3906C127.633 23.3906 128.099 23.4896 128.484 23.6875C128.875 23.8854 129.201 24.1693 129.461 24.5391C129.721 24.9036 129.924 25.3411 130.07 25.8516C130.221 26.3568 130.333 26.9193 130.406 27.5391V28.0625C130.339 28.6667 130.224 29.2188 130.062 29.7188C129.901 30.2188 129.688 30.651 129.422 31.0156C129.156 31.3802 128.828 31.6615 128.438 31.8594C128.052 32.0573 127.596 32.1562 127.07 32.1562C126.555 32.1562 126.089 32.0495 125.672 31.8359C125.26 31.6224 124.906 31.3229 124.609 30.9375C124.318 30.5521 124.094 30.099 123.938 29.5781C123.781 29.0521 123.703 28.4818 123.703 27.8672ZM125.586 27.7031V27.8672C125.586 28.2526 125.622 28.612 125.695 28.9453C125.773 29.2786 125.891 29.5729 126.047 29.8281C126.208 30.0781 126.411 30.276 126.656 30.4219C126.906 30.5625 127.201 30.6328 127.539 30.6328C127.982 30.6328 128.344 30.5391 128.625 30.3516C128.911 30.1641 129.13 29.9115 129.281 29.5938C129.438 29.2708 129.547 28.9115 129.609 28.5156V27.1016C129.578 26.7943 129.513 26.5078 129.414 26.2422C129.32 25.9766 129.193 25.7448 129.031 25.5469C128.87 25.3438 128.667 25.1875 128.422 25.0781C128.177 24.9635 127.888 24.9062 127.555 24.9062C127.216 24.9062 126.922 24.9792 126.672 25.125C126.422 25.2708 126.216 25.4714 126.055 25.7266C125.898 25.9818 125.781 26.2786 125.703 26.6172C125.625 26.9557 125.586 27.3177 125.586 27.7031ZM135.125 20V32H133.234V20H135.125ZM140.914 32.1562C140.289 32.1562 139.724 32.0547 139.219 31.8516C138.719 31.6432 138.292 31.3542 137.938 30.9844C137.589 30.6146 137.32 30.1797 137.133 29.6797C136.945 29.1797 136.852 28.6406 136.852 28.0625V27.75C136.852 27.0885 136.948 26.4896 137.141 25.9531C137.333 25.4167 137.602 24.9583 137.945 24.5781C138.289 24.1927 138.695 23.8984 139.164 23.6953C139.633 23.4922 140.141 23.3906 140.688 23.3906C141.292 23.3906 141.82 23.4922 142.273 23.6953C142.727 23.8984 143.102 24.1849 143.398 24.5547C143.701 24.9193 143.924 25.3542 144.07 25.8594C144.221 26.3646 144.297 26.9219 144.297 27.5312V28.3359H137.766V26.9844H142.438V26.8359C142.427 26.4974 142.359 26.1797 142.234 25.8828C142.115 25.5859 141.93 25.3464 141.68 25.1641C141.43 24.9818 141.096 24.8906 140.68 24.8906C140.367 24.8906 140.089 24.9583 139.844 25.0938C139.604 25.224 139.404 25.4141 139.242 25.6641C139.081 25.9141 138.956 26.2161 138.867 26.5703C138.784 26.9193 138.742 27.3125 138.742 27.75V28.0625C138.742 28.4323 138.792 28.776 138.891 29.0938C138.995 29.4062 139.146 29.6797 139.344 29.9141C139.542 30.1484 139.781 30.3333 140.062 30.4688C140.344 30.599 140.664 30.6641 141.023 30.6641C141.477 30.6641 141.88 30.5729 142.234 30.3906C142.589 30.2083 142.896 29.9505 143.156 29.6172L144.148 30.5781C143.966 30.8438 143.729 31.099 143.438 31.3438C143.146 31.5833 142.789 31.7786 142.367 31.9297C141.951 32.0807 141.466 32.1562 140.914 32.1562ZM155.181 22.8H158.397V23.872H155.181V22.8ZM155.069 26.432H158.365V27.504H155.069V26.432ZM160.589 18.784H161.869V33.248H160.589V18.784ZM157.693 19.152H158.941V32.512H157.693V19.152ZM154.461 20.608H155.741C155.741 24.4 154.221 27.808 150.333 30.128L149.565 29.184C152.941 27.136 154.461 24.256 154.461 20.848V20.608ZM150.205 20.608H154.989V21.696H150.205V20.608ZM172.012 22.528H175.276V23.632H172.012V22.528ZM174.86 18.784H176.188V27.408H174.86V18.784ZM171.436 27.84C174.412 27.84 176.252 28.848 176.252 30.544C176.252 32.256 174.412 33.232 171.436 33.232C168.444 33.232 166.604 32.256 166.604 30.544C166.604 28.848 168.444 27.84 171.436 27.84ZM171.436 28.88C169.26 28.88 167.932 29.488 167.932 30.544C167.932 31.584 169.26 32.192 171.436 32.192C173.612 32.192 174.94 31.584 174.94 30.544C174.94 29.488 173.612 28.88 171.436 28.88ZM167.98 20.24H169.068V21.408C169.068 24.08 167.436 26.368 165.036 27.264L164.348 26.208C166.492 25.424 167.98 23.488 167.98 21.408V20.24ZM168.236 20.24H169.308V21.408C169.308 23.28 170.716 25.072 172.812 25.808L172.14 26.864C169.788 26.016 168.236 23.84 168.236 21.408V20.24ZM164.748 19.84H172.476V20.928H164.748V19.84ZM185.547 19.696C188.555 19.696 190.795 21.296 190.795 23.696C190.795 26.112 188.555 27.696 185.547 27.696C182.539 27.696 180.283 26.112 180.283 23.696C180.283 21.296 182.539 19.696 185.547 19.696ZM185.547 20.784C183.259 20.784 181.563 21.952 181.563 23.696C181.563 25.424 183.259 26.608 185.547 26.608C187.835 26.608 189.531 25.424 189.531 23.696C189.531 21.952 187.835 20.784 185.547 20.784ZM179.019 30.224H192.123V31.344H179.019V30.224ZM193.738 30.368H206.842V31.472H193.738V30.368ZM199.594 27.264H200.922V30.832H199.594V27.264ZM195.322 19.856H205.226V24.24H196.682V27.136H195.37V23.168H203.914V20.928H195.322V19.856ZM195.37 26.576H205.562V27.664H195.37V26.576ZM212.441 30.368H225.545V31.472H212.441V30.368ZM218.297 27.264H219.625V30.832H218.297V27.264ZM214.025 19.856H223.929V24.24H215.385V27.136H214.073V23.168H222.617V20.928H214.025V19.856ZM214.073 26.576H224.265V27.664H214.073V26.576ZM228.567 20.32H237.879V21.392H228.567V20.32ZM227.159 30.032H240.231V31.136H227.159V30.032ZM237.175 20.32H238.471V21.76C238.471 23.616 238.471 25.68 237.927 28.8L236.599 28.672C237.175 25.712 237.175 23.552 237.175 21.76V20.32ZM252.39 18.8H253.734V29.36H252.39V18.8ZM244.438 31.84H254.166V32.928H244.438V31.84ZM244.438 28.272H245.75V32.208H244.438V28.272ZM245.974 19.792C248.134 19.792 249.734 21.264 249.734 23.36C249.734 25.44 248.134 26.928 245.974 26.928C243.814 26.928 242.198 25.44 242.198 23.36C242.198 21.264 243.814 19.792 245.974 19.792ZM245.974 20.944C244.566 20.944 243.494 21.936 243.494 23.36C243.494 24.768 244.566 25.76 245.974 25.76C247.382 25.76 248.454 24.768 248.454 23.36C248.454 21.936 247.382 20.944 245.974 20.944Z" fill="#757575"/>
</svg>
