<svg width="30" height="30" viewBox="0 0 30 30" fill="none" xmlns="http://www.w3.org/2000/svg">
<path d="M11 23C11 24.6667 11.8 28 15 28C18.2 28 19 24.6667 19 23" stroke="#111111" stroke-width="1.5"/>
<mask id="path-2-inside-1_2168_11216" fill="white">
<path d="M3 15C3 8.37258 8.37258 3 15 3C21.6274 3 27 8.37258 27 15V23.3226C27 23.6967 26.6967 24 26.3226 24H3.67742C3.30329 24 3 23.6967 3 23.3226V15Z"/>
</mask>
<path d="M3 15C3 8.37258 8.37258 3 15 3C21.6274 3 27 8.37258 27 15V23.3226C27 23.6967 26.6967 24 26.3226 24H3.67742C3.30329 24 3 23.6967 3 23.3226V15Z" stroke="#111111" stroke-width="3" mask="url(#path-2-inside-1_2168_11216)"/>
<circle cx="26.5" cy="3.5" r="2.5" fill="#8E48F8"/>
</svg>
