<svg width="327" height="54" viewBox="0 0 327 54" fill="none" xmlns="http://www.w3.org/2000/svg">
<rect width="327" height="54" rx="6" fill="#FEE500"/>
<g clip-path="url(#clip0_2844_6851)">
<path fill-rule="evenodd" clip-rule="evenodd" d="M113 18.6016C108.029 18.6016 104 21.7145 104 25.5538C104 27.9416 105.558 30.0465 107.932 31.2985L106.933 34.9461C106.845 35.2684 107.213 35.5252 107.496 35.3385L111.873 32.4498C112.243 32.4854 112.618 32.5062 113 32.5062C117.97 32.5062 122 29.3934 122 25.5538C122 21.7145 117.97 18.6016 113 18.6016Z" fill="black"/>
</g>
<path d="M136.944 20.288H138.24C138.24 24.464 136.832 28.304 131.648 30.88L130.928 29.856C135.504 27.6 136.944 24.368 136.944 20.432V20.288ZM131.712 20.288H137.728V21.36H131.712V20.288ZM136.736 23.872V24.896L131.2 25.44L130.992 24.256L136.736 23.872ZM140.576 18.768H141.92V33.248H140.576V18.768ZM141.552 24.64H144.224V25.744H141.552V24.64ZM151.663 20.288H152.959C152.959 24.464 151.551 28.304 146.367 30.88L145.647 29.856C150.223 27.6 151.663 24.368 151.663 20.432V20.288ZM146.431 20.288H152.447V21.36H146.431V20.288ZM151.455 23.872V24.896L145.919 25.44L145.711 24.256L151.455 23.872ZM155.295 18.768H156.639V33.248H155.295V18.768ZM156.271 24.64H158.943V25.744H156.271V24.64ZM166.094 26.96H167.422V30.56H166.094V26.96ZM166.766 19.728C169.822 19.728 172.014 21.216 172.014 23.52C172.014 25.824 169.822 27.312 166.766 27.312C163.71 27.312 161.502 25.824 161.502 23.52C161.502 21.216 163.71 19.728 166.766 19.728ZM166.766 20.784C164.462 20.784 162.782 21.872 162.782 23.52C162.782 25.168 164.462 26.256 166.766 26.256C169.054 26.256 170.734 25.168 170.734 23.52C170.734 21.872 169.054 20.784 166.766 20.784ZM160.238 30.304H173.342V31.408H160.238V30.304ZM178.941 30.368H192.045V31.472H178.941V30.368ZM184.797 27.264H186.125V30.832H184.797V27.264ZM180.525 19.856H190.429V24.24H181.885V27.136H180.573V23.168H189.117V20.928H180.525V19.856ZM180.573 26.576H190.765V27.664H180.573V26.576ZM195.067 20.32H204.379V21.392H195.067V20.32ZM193.659 30.032H206.731V31.136H193.659V30.032ZM203.675 20.32H204.971V21.76C204.971 23.616 204.971 25.68 204.427 28.8L203.099 28.672C203.675 25.712 203.675 23.552 203.675 21.76V20.32ZM218.89 18.8H220.234V29.36H218.89V18.8ZM210.938 31.84H220.666V32.928H210.938V31.84ZM210.938 28.272H212.25V32.208H210.938V28.272ZM212.474 19.792C214.634 19.792 216.234 21.264 216.234 23.36C216.234 25.44 214.634 26.928 212.474 26.928C210.314 26.928 208.698 25.44 208.698 23.36C208.698 21.264 210.314 19.792 212.474 19.792ZM212.474 20.944C211.066 20.944 209.994 21.936 209.994 23.36C209.994 24.768 211.066 25.76 212.474 25.76C213.882 25.76 214.954 24.768 214.954 23.36C214.954 21.936 213.882 20.944 212.474 20.944Z" fill="black" fill-opacity="0.85"/>
<defs>
<clipPath id="clip0_2844_6851">
<rect width="17.9999" height="18" fill="white" transform="translate(104 18)"/>
</clipPath>
</defs>
</svg>
