<svg width="327" height="55" viewBox="0 0 327 55" fill="none" xmlns="http://www.w3.org/2000/svg">
<g clip-path="url(#clip0_2860_6823)">
<rect y="0.285156" width="327" height="54" rx="6" fill="#FEE500"/>
<g clip-path="url(#clip1_2860_6823)">
<path fill-rule="evenodd" clip-rule="evenodd" d="M83.5 18.8848C78.5292 18.8848 74.5 21.9977 74.5 25.837C74.5 28.2248 76.0584 30.3297 78.4315 31.5817L77.433 35.2293C77.3448 35.5516 77.7134 35.8085 77.9965 35.6217L82.3733 32.733C82.7427 32.7686 83.1181 32.7894 83.5 32.7894C88.4705 32.7894 92.4999 29.6766 92.4999 25.837C92.4999 21.9977 88.4705 18.8848 83.5 18.8848Z" fill="black"/>
</g>
<path d="M107.444 20.5732H108.74C108.74 24.7492 107.332 28.5892 102.148 31.1652L101.428 30.1412C106.004 27.8852 107.444 24.6532 107.444 20.7172V20.5732ZM102.212 20.5732H108.228V21.6452H102.212V20.5732ZM107.236 24.1572V25.1812L101.7 25.7252L101.492 24.5412L107.236 24.1572ZM111.076 19.0532H112.42V33.5332H111.076V19.0532ZM112.052 24.9252H114.724V26.0292H112.052V24.9252ZM122.163 20.5732H123.459C123.459 24.7492 122.051 28.5892 116.867 31.1652L116.147 30.1412C120.723 27.8852 122.163 24.6532 122.163 20.7172V20.5732ZM116.931 20.5732H122.947V21.6452H116.931V20.5732ZM121.955 24.1572V25.1812L116.419 25.7252L116.211 24.5412L121.955 24.1572ZM125.795 19.0532H127.139V33.5332H125.795V19.0532ZM126.771 24.9252H129.443V26.0292H126.771V24.9252ZM136.594 27.2452H137.922V30.8452H136.594V27.2452ZM137.266 20.0132C140.322 20.0132 142.514 21.5012 142.514 23.8052C142.514 26.1092 140.322 27.5972 137.266 27.5972C134.21 27.5972 132.002 26.1092 132.002 23.8052C132.002 21.5012 134.21 20.0132 137.266 20.0132ZM137.266 21.0692C134.962 21.0692 133.282 22.1572 133.282 23.8052C133.282 25.4532 134.962 26.5412 137.266 26.5412C139.554 26.5412 141.234 25.4532 141.234 23.8052C141.234 22.1572 139.554 21.0692 137.266 21.0692ZM130.738 30.5892H143.842V31.6932H130.738V30.5892ZM151.056 23.0852H154.272V24.1572H151.056V23.0852ZM150.944 26.7172H154.24V27.7892H150.944V26.7172ZM156.464 19.0692H157.744V33.5332H156.464V19.0692ZM153.568 19.4372H154.816V32.7972H153.568V19.4372ZM150.336 20.8932H151.616C151.616 24.6852 150.096 28.0932 146.208 30.4132L145.44 29.4692C148.816 27.4212 150.336 24.5412 150.336 21.1332V20.8932ZM146.08 20.8932H150.864V21.9812H146.08V20.8932ZM167.887 22.8132H171.151V23.9172H167.887V22.8132ZM170.735 19.0692H172.063V27.6932H170.735V19.0692ZM167.311 28.1252C170.287 28.1252 172.127 29.1332 172.127 30.8292C172.127 32.5412 170.287 33.5172 167.311 33.5172C164.319 33.5172 162.479 32.5412 162.479 30.8292C162.479 29.1332 164.319 28.1252 167.311 28.1252ZM167.311 29.1652C165.135 29.1652 163.807 29.7732 163.807 30.8292C163.807 31.8692 165.135 32.4772 167.311 32.4772C169.487 32.4772 170.815 31.8692 170.815 30.8292C170.815 29.7732 169.487 29.1652 167.311 29.1652ZM163.855 20.5252H164.943V21.6932C164.943 24.3652 163.311 26.6532 160.911 27.5492L160.223 26.4932C162.367 25.7092 163.855 23.7732 163.855 21.6932V20.5252ZM164.111 20.5252H165.183V21.6932C165.183 23.5652 166.591 25.3572 168.687 26.0932L168.015 27.1492C165.663 26.3012 164.111 24.1252 164.111 21.6932V20.5252ZM160.623 20.1252H168.351V21.2132H160.623V20.1252ZM181.422 19.9812C184.43 19.9812 186.67 21.5812 186.67 23.9812C186.67 26.3972 184.43 27.9812 181.422 27.9812C178.414 27.9812 176.158 26.3972 176.158 23.9812C176.158 21.5812 178.414 19.9812 181.422 19.9812ZM181.422 21.0692C179.134 21.0692 177.438 22.2372 177.438 23.9812C177.438 25.7092 179.134 26.8932 181.422 26.8932C183.71 26.8932 185.406 25.7092 185.406 23.9812C185.406 22.2372 183.71 21.0692 181.422 21.0692ZM174.894 30.5092H187.998V31.6292H174.894V30.5092ZM189.613 30.6532H202.717V31.7572H189.613V30.6532ZM195.469 27.5492H196.797V31.1172H195.469V27.5492ZM191.197 20.1412H201.101V24.5252H192.557V27.4212H191.245V23.4532H199.789V21.2132H191.197V20.1412ZM191.245 26.8612H201.437V27.9492H191.245V26.8612ZM208.316 30.6532H221.42V31.7572H208.316V30.6532ZM214.172 27.5492H215.5V31.1172H214.172V27.5492ZM209.9 20.1412H219.804V24.5252H211.26V27.4212H209.948V23.4532H218.492V21.2132H209.9V20.1412ZM209.948 26.8612H220.14V27.9492H209.948V26.8612ZM224.442 20.6052H233.754V21.6772H224.442V20.6052ZM223.034 30.3172H236.106V31.4212H223.034V30.3172ZM233.05 20.6052H234.346V22.0452C234.346 23.9012 234.346 25.9652 233.802 29.0852L232.474 28.9572C233.05 25.9972 233.05 23.8372 233.05 22.0452V20.6052ZM248.265 19.0852H249.609V29.6452H248.265V19.0852ZM240.313 32.1252H250.041V33.2132H240.313V32.1252ZM240.313 28.5572H241.625V32.4932H240.313V28.5572ZM241.849 20.0772C244.009 20.0772 245.609 21.5492 245.609 23.6452C245.609 25.7252 244.009 27.2132 241.849 27.2132C239.689 27.2132 238.073 25.7252 238.073 23.6452C238.073 21.5492 239.689 20.0772 241.849 20.0772ZM241.849 21.2292C240.441 21.2292 239.369 22.2212 239.369 23.6452C239.369 25.0532 240.441 26.0452 241.849 26.0452C243.257 26.0452 244.329 25.0532 244.329 23.6452C244.329 22.2212 243.257 21.2292 241.849 21.2292Z" fill="black" fill-opacity="0.85"/>
</g>
<defs>
<clipPath id="clip0_2860_6823">
<rect y="0.285156" width="327" height="54" rx="6" fill="white"/>
</clipPath>
<clipPath id="clip1_2860_6823">
<rect width="17.9999" height="18" fill="white" transform="translate(74.5 18.2852)"/>
</clipPath>
</defs>
</svg>
