<svg width="100" height="80" viewBox="0 0 100 80" fill="none" xmlns="http://www.w3.org/2000/svg">
<rect x="0.5" y="0.5" width="99" height="79" rx="19.5" fill="#EDEDEE" stroke="white"/>
<path fill-rule="evenodd" clip-rule="evenodd" d="M21.8748 38.6487C21.2363 37.0178 20.8858 35.2424 20.8858 33.3852C20.8858 25.4081 27.3525 18.9414 35.3296 18.9414C43.3067 18.9414 49.7734 25.4081 49.7734 33.3852C49.7734 41.3623 43.3067 47.829 35.3296 47.829C32.2393 47.829 29.3757 46.8585 27.0269 45.2057H20.22C19.2847 45.2057 18.6987 44.1949 19.1635 43.3832L21.8748 38.6487Z" fill="#A5A4AE"/>
<ellipse cx="1.30243" cy="1.31307" rx="1.30243" ry="1.31307" transform="matrix(-1 0 0 1 43.2109 32.0684)" fill="white"/>
<ellipse cx="1.30243" cy="1.31307" rx="1.30243" ry="1.31307" transform="matrix(-1 0 0 1 35.3516 32.0684)" fill="white"/>
<path d="M41.8984 39.9512L32.7069 38.6381" stroke="white" stroke-width="1.21745" stroke-linecap="round"/>
<path fill-rule="evenodd" clip-rule="evenodd" d="M77.7423 50.9573C78.3809 49.3264 78.7314 47.551 78.7314 45.6938C78.7314 37.7167 72.2647 31.25 64.2876 31.25C56.3105 31.25 49.8438 37.7167 49.8438 45.6938C49.8438 53.6709 56.3105 60.1376 64.2876 60.1376C67.3779 60.1376 70.2415 59.1671 72.5903 57.5143H79.3972C80.3325 57.5143 80.9184 56.5035 80.4536 55.6918L77.7423 50.9573Z" fill="#A5A4AE"/>
<ellipse cx="57.7165" cy="45.6939" rx="1.30243" ry="1.31307" fill="white"/>
<ellipse cx="65.5759" cy="45.6939" rx="1.30243" ry="1.31307" fill="white"/>
<path d="M57.7266 52.2578L66.9181 50.9447" stroke="white" stroke-width="1.21745" stroke-linecap="round"/>
</svg>
