<svg width="24" height="24" viewBox="0 0 24 24" fill="none" xmlns="http://www.w3.org/2000/svg">
<path d="M5.20766 11.568C5.20766 15.217 8.16576 18.1752 11.8148 18.1752C15.4638 18.1752 18.4219 15.217 18.4219 11.568C18.4219 7.91904 15.4638 4.96094 11.8148 4.96094C8.16576 4.96094 5.20766 7.91904 5.20766 11.568Z" fill="#111111"/>
<ellipse cx="0.584499" cy="0.589276" rx="0.584499" ry="0.589276" transform="matrix(-1 0 0 1 14.2031 10.8535)" fill="white"/>
<ellipse cx="0.584499" cy="0.589276" rx="0.584499" ry="0.589276" transform="matrix(-1 0 0 1 10.6797 10.8535)" fill="white"/>
<path d="M11.8155 19.6532C11.8155 19.9536 12.0593 20.1989 12.359 20.1799C14.1252 20.068 15.8188 19.4133 17.2047 18.2987C18.7322 17.0701 19.794 15.3564 20.2142 13.4417C20.6344 11.527 20.3877 9.52621 19.5151 7.77088C18.6425 6.01555 17.1963 4.61107 15.4162 3.79021C13.6361 2.96934 11.6289 2.78136 9.72734 3.25742C7.82576 3.73348 6.14393 4.84499 4.96055 6.40777C3.77718 7.97055 3.16331 9.89076 3.22069 11.8502C3.27274 13.6279 3.87449 15.3411 4.93618 16.757C5.11638 16.9973 5.46119 17.0234 5.68962 16.8284C5.91806 16.6333 5.94336 16.2911 5.76537 16.0492C4.86351 14.8233 4.35271 13.3482 4.30792 11.8183C4.2578 10.1068 4.79402 8.42948 5.82769 7.06439C6.86137 5.6993 8.33046 4.72839 9.99149 4.31255C11.6525 3.89671 13.4058 4.06091 14.9607 4.77794C16.5157 5.49497 17.7789 6.72178 18.5411 8.25507C19.3034 9.78835 19.5188 11.5361 19.1518 13.2086C18.7847 14.881 17.8572 16.3779 16.523 17.4511C15.3304 18.4103 13.8769 18.9796 12.3589 19.0897C12.0594 19.1114 11.8155 19.3529 11.8155 19.6532Z" fill="#111111"/>
<path d="M3.5627 12.3934C3.27205 12.5545 2.61953 12.8834 2.41267 13.1435C2.20581 13.4036 2.05219 13.7019 1.96061 14.0213C1.86902 14.3408 1.84125 14.6751 1.87888 15.0053C1.91652 15.3355 2.01882 15.655 2.17994 15.9457C2.34106 16.2363 2.55786 16.4924 2.81794 16.6992C3.07803 16.9061 3.37631 17.0597 3.69576 17.1513C4.01521 17.2429 4.34957 17.2707 4.67976 17.233C5.00994 17.1954 5.36175 17.2058 5.60666 16.8792L4.39319 14.7187L3.5627 12.3934Z" fill="#111111"/>
<path d="M20.4373 12.3934C20.7279 12.5545 21.3805 12.8834 21.5873 13.1435C21.7942 13.4036 21.9478 13.7019 22.0394 14.0213C22.131 14.3408 22.1587 14.6751 22.1211 15.0053C22.0835 15.3355 21.9812 15.655 21.8201 15.9457C21.6589 16.2363 21.4421 16.4924 21.1821 16.6992C20.922 16.9061 20.6237 17.0597 20.3042 17.1513C19.9848 17.2429 19.6504 17.2707 19.3202 17.233C18.9901 17.1954 18.6383 17.2058 18.3933 16.8792L19.6068 14.7187L20.4373 12.3934Z" fill="#111111"/>
<ellipse cx="11.7916" cy="19.8159" rx="1.87753" ry="1.30611" fill="#111111"/>
</svg>
