<svg width="24" height="24" viewBox="0 0 24 24" fill="none" xmlns="http://www.w3.org/2000/svg">
<path d="M3.644 5.18324L11.644 2.13562C11.8733 2.04827 12.1267 2.04827 12.356 2.13562L20.356 5.18324C20.7438 5.33095 21 5.70278 21 6.11772V13.5714C21 17.4286 19.1053 23 12 23C4.89473 23 3 17 3 13.5714V6.11772C3 5.70278 3.25625 5.33095 3.644 5.18324Z" fill="#111111"/>
<circle cx="12" cy="9" r="2.6875" fill="white" stroke="#111111" stroke-width="0.625"/>
<path d="M6.3125 15.3333C6.3125 13.665 7.66497 12.3125 9.33333 12.3125H14.6667C16.335 12.3125 17.6875 13.665 17.6875 15.3333V17.1667C17.6875 17.4543 17.4543 17.6875 17.1667 17.6875H6.83333C6.54568 17.6875 6.3125 17.4543 6.3125 17.1667V15.3333Z" fill="white" stroke="#111111" stroke-width="0.625"/>
</svg>
