<svg width="24" height="24" viewBox="0 0 24 24" fill="none" xmlns="http://www.w3.org/2000/svg">
<rect x="2" y="8" width="20" height="14" rx="2" fill="#111111"/>
<path d="M18 9C18 8.21207 17.8448 7.43185 17.5433 6.7039C17.2417 5.97595 16.7998 5.31451 16.2426 4.75736C15.6855 4.20021 15.0241 3.75825 14.2961 3.45672C13.5681 3.15519 12.7879 3 12 3C11.2121 3 10.4319 3.15519 9.7039 3.45672C8.97595 3.75825 8.31451 4.20021 7.75736 4.75736C7.20021 5.31451 6.75825 5.97595 6.45672 6.7039C6.15519 7.43185 6 8.21207 6 9H7.2C7.2 8.36966 7.32416 7.74548 7.56538 7.16312C7.8066 6.58076 8.16017 6.05161 8.60589 5.60589C9.05161 5.16017 9.58076 4.8066 10.1631 4.56538C10.7455 4.32416 11.3697 4.2 12 4.2C12.6303 4.2 13.2545 4.32416 13.8369 4.56538C14.4192 4.8066 14.9484 5.16017 15.3941 5.60589C15.8398 6.05161 16.1934 6.58076 16.4346 7.16312C16.6758 7.74548 16.8 8.36966 16.8 9H18Z" fill="#111111"/>
<circle cx="12" cy="13" r="1.5" fill="white" stroke="white"/>
<path d="M11 18C11 18.5523 11.4477 19 12 19C12.5523 19 13 18.5523 13 18L11 18ZM11 14L11 18L13 18L13 14L11 14Z" fill="white"/>
</svg>
