<svg width="21" height="26" viewBox="0 0 21 26" fill="none" xmlns="http://www.w3.org/2000/svg">
<g filter="url(#filter0_d_3338_9118)">
<path d="M14.3111 10.4984L7.52225 17.8099C7.40898 17.9319 7.25848 18 7.10199 18C6.94549 18 6.795 17.9319 6.68172 17.8099L6.67441 17.8016C6.61931 17.7424 6.57543 17.6712 6.54545 17.5923C6.51546 17.5133 6.5 17.4283 6.5 17.3424C6.5 17.2565 6.51546 17.1715 6.54545 17.0925C6.57543 17.0136 6.61931 16.9424 6.67441 16.8832L13.0673 9.99862L6.67441 3.11681C6.61931 3.05764 6.57543 2.98642 6.54545 2.90747C6.51546 2.82853 6.5 2.74352 6.5 2.65761C6.5 2.5717 6.51546 2.48669 6.54545 2.40774C6.57543 2.3288 6.61931 2.25758 6.67441 2.19841L6.68172 2.19015C6.79499 2.06809 6.94549 2 7.10198 2C7.25848 2 7.40898 2.06809 7.52225 2.19015L14.3111 9.50156C14.3708 9.56585 14.4183 9.64319 14.4508 9.72887C14.4833 9.81455 14.5 9.90679 14.5 10C14.5 10.0932 14.4833 10.1855 14.4508 10.2711C14.4183 10.3568 14.3708 10.4341 14.3111 10.4984Z" fill="#111111"/>
</g>
<defs>
<filter id="filter0_d_3338_9118" x="-3.5" y="0" width="28" height="28" filterUnits="userSpaceOnUse" color-interpolation-filters="sRGB">
<feFlood flood-opacity="0" result="BackgroundImageFix"/>
<feColorMatrix in="SourceAlpha" type="matrix" values="0 0 0 0 0 0 0 0 0 0 0 0 0 0 0 0 0 0 127 0" result="hardAlpha"/>
<feOffset dy="4"/>
<feGaussianBlur stdDeviation="2"/>
<feComposite in2="hardAlpha" operator="out"/>
<feColorMatrix type="matrix" values="0 0 0 0 0 0 0 0 0 0 0 0 0 0 0 0 0 0 0.25 0"/>
<feBlend mode="normal" in2="BackgroundImageFix" result="effect1_dropShadow_3338_9118"/>
<feBlend mode="normal" in="SourceGraphic" in2="effect1_dropShadow_3338_9118" result="shape"/>
</filter>
</defs>
</svg>
