<svg width="327" height="54" viewBox="0 0 327 54" fill="none" xmlns="http://www.w3.org/2000/svg">
<rect width="327" height="54" rx="6" fill="#03C75A"/>
<g clip-path="url(#clip0_2844_6892)">
<path d="M115.349 27.5627L109.417 19H104.5V35H109.651V26.436L115.583 35H120.5V19H115.349V27.5627Z" fill="white"/>
</g>
<path d="M138.469 29.3203C139.172 29.3099 139.828 29.276 140.438 29.2188C141.052 29.1562 141.677 29.0573 142.312 28.9219L142.578 30.5938C141.802 30.7656 141.039 30.8828 140.289 30.9453C139.544 31.0026 138.695 31.0312 137.742 31.0312H137.469H136.469V21.5781H138.469V29.3203ZM140.469 24.7188H143.312V20.4844H145.203V33.8125H143.312V26.3281H140.469V24.7188ZM146.375 20.2188H148.25V34.4375H146.375V20.2188ZM161.656 34.4688H159.641V20.2188H161.656V34.4688ZM150.172 26.2812C150.172 25.2656 150.331 24.375 150.648 23.6094C150.971 22.8438 151.417 22.2552 151.984 21.8438C152.557 21.4271 153.208 21.2188 153.938 21.2188C154.651 21.2188 155.289 21.4271 155.852 21.8438C156.419 22.2552 156.865 22.8438 157.188 23.6094C157.51 24.375 157.672 25.2656 157.672 26.2812C157.672 27.3021 157.51 28.1979 157.188 28.9688C156.865 29.7344 156.419 30.3255 155.852 30.7422C155.289 31.1536 154.651 31.3594 153.938 31.3594C153.208 31.3594 152.557 31.1536 151.984 30.7422C151.417 30.3255 150.971 29.7344 150.648 28.9688C150.331 28.1979 150.172 27.3021 150.172 26.2812ZM152.094 26.2812C152.094 26.974 152.169 27.5677 152.32 28.0625C152.471 28.5521 152.685 28.9245 152.961 29.1797C153.242 29.4297 153.568 29.5521 153.938 29.5469C154.297 29.5521 154.612 29.4297 154.883 29.1797C155.159 28.9245 155.372 28.5521 155.523 28.0625C155.674 27.5677 155.75 26.974 155.75 26.2812C155.75 25.5885 155.674 24.9974 155.523 24.5078C155.372 24.0182 155.159 23.6484 154.883 23.3984C154.612 23.1432 154.297 23.0156 153.938 23.0156C153.568 23.0156 153.242 23.1432 152.961 23.3984C152.685 23.6484 152.471 24.0182 152.32 24.5078C152.169 24.9974 152.094 25.5885 152.094 26.2812ZM175.578 34.4688H173.609V26.8438H170.969V31.0938H164.109V21.3125H166.094V24.7656H169.016V21.3125H170.969V25.2344H173.609V20.2188H175.578V34.4688ZM169.016 29.5V26.3281H166.094V29.5H169.016ZM194.109 32.8594H181.094V31.2188H186.578V29.0781H182.594V24.2969H190.641V22.7344H182.578V21.1406H192.609V25.8594H184.594V27.4531H192.938V29.0781H188.562V31.2188H194.109V32.8594ZM206.297 23.2344C206.292 24.125 206.281 24.8698 206.266 25.4688C206.25 26.0625 206.203 26.7474 206.125 27.5234C206.052 28.2995 205.938 29.1458 205.781 30.0625L203.766 29.8906C203.932 29.0417 204.055 28.2396 204.133 27.4844C204.211 26.724 204.258 26.0443 204.273 25.4453C204.294 24.8464 204.307 24.1094 204.312 23.2344V23.125H196.266V21.5312H206.297V23.2344ZM194.922 30.9375H207.891V32.5781H194.922V30.9375ZM220.656 30.4531H218.656V20.2344H220.656V30.4531ZM208.969 24.7188C208.969 24.0365 209.141 23.4219 209.484 22.875C209.828 22.3281 210.294 21.9036 210.883 21.6016C211.477 21.2943 212.135 21.1406 212.859 21.1406C213.578 21.1406 214.234 21.2943 214.828 21.6016C215.422 21.9036 215.891 22.3281 216.234 22.875C216.578 23.4219 216.75 24.0365 216.75 24.7188C216.75 25.4115 216.578 26.0339 216.234 26.5859C215.891 27.1328 215.422 27.5599 214.828 27.8672C214.234 28.1745 213.578 28.3281 212.859 28.3281C212.135 28.3281 211.477 28.1745 210.883 27.8672C210.289 27.5599 209.82 27.1328 209.477 26.5859C209.138 26.0339 208.969 25.4115 208.969 24.7188ZM210.922 24.7188C210.917 25.1042 210.997 25.4401 211.164 25.7266C211.331 26.0078 211.56 26.224 211.852 26.375C212.148 26.5208 212.484 26.5938 212.859 26.5938C213.224 26.5938 213.549 26.5208 213.836 26.375C214.128 26.224 214.357 26.0078 214.523 25.7266C214.695 25.4401 214.781 25.1042 214.781 24.7188C214.781 24.3438 214.695 24.0156 214.523 23.7344C214.357 23.4531 214.128 23.2396 213.836 23.0938C213.544 22.9427 213.219 22.8698 212.859 22.875C212.484 22.8698 212.148 22.9427 211.852 23.0938C211.56 23.2396 211.331 23.4531 211.164 23.7344C210.997 24.0156 210.917 24.3438 210.922 24.7188ZM211.125 29.4219H213.141V32.5938H221.031V34.1875H211.125V29.4219Z" fill="white"/>
<defs>
<clipPath id="clip0_2844_6892">
<rect width="16" height="16" fill="white" transform="translate(104.5 19)"/>
</clipPath>
</defs>
</svg>
