<svg width="20" height="20" viewBox="0 0 20 20" fill="none" xmlns="http://www.w3.org/2000/svg">
<path d="M10.0026 18.6654C7.86927 18.6654 7.33594 16.4431 7.33594 15.332H12.6693C12.6693 16.4431 12.1359 18.6654 10.0026 18.6654Z" fill="#111111"/>
<path d="M2 8.66797C2 4.24969 5.58172 0.667969 10 0.667969C14.4183 0.667969 18 4.24969 18 8.66797V14.2164C18 14.4658 17.7978 14.668 17.5484 14.668H2.45161C2.20219 14.668 2 14.4658 2 14.2164V8.66797Z" fill="#111111"/>
<path d="M11.3478 4.53604L11.3715 6.83157L13.9258 6.38074L12.0397 8.16127L13.8675 9.55024L11.572 9.57399L12.3605 12.8003L10.2423 10.2422L8.8533 12.07L8.82955 9.77443L6.55496 10.0847L8.16135 8.44474L6.33357 7.05576L8.6291 7.03201L7.57812 3L9.9588 6.36382L11.3478 4.53604Z" fill="#DCF333"/>
</svg>
