<svg width="20" height="20" viewBox="0 0 20 20" fill="none" xmlns="http://www.w3.org/2000/svg">
<path d="M10.0026 18.6673C7.86927 18.6673 7.33594 16.4451 7.33594 15.334H12.6693C12.6693 16.4451 12.1359 18.6673 10.0026 18.6673Z" fill="#111111"/>
<path d="M2 8.66602C2 4.24774 5.58172 0.666016 10 0.666016C14.4183 0.666016 18 4.24774 18 8.66602V14.2144C18 14.4638 17.7978 14.666 17.5484 14.666H2.45161C2.20219 14.666 2 14.4638 2 14.2144V8.66602Z" fill="#111111"/>
<path d="M11.3478 4.53604L11.3715 6.83157L13.9258 6.38074L12.0397 8.16127L13.8675 9.55024L11.572 9.57399L12.3605 12.8003L10.2423 10.2422L8.8533 12.07L8.82955 9.77443L6.55496 10.0847L8.16135 8.44474L6.33357 7.05576L8.6291 7.03201L7.57812 3L9.9588 6.36382L11.3478 4.53604Z" fill="#DCF333"/>
</svg>
