<svg width="30" height="30" viewBox="0 0 30 30" fill="none" xmlns="http://www.w3.org/2000/svg">
<path d="M6.43903 14.3586C6.43903 18.9836 10.1883 22.7328 14.8133 22.7328C19.4382 22.7328 23.1875 18.9836 23.1875 14.3586C23.1875 9.73365 19.4382 5.98438 14.8133 5.98438C10.1883 5.98438 6.43903 9.73365 6.43903 14.3586Z" fill="#8E48F8"/>
<ellipse cx="0.740828" cy="0.746883" rx="0.740828" ry="0.746883" transform="matrix(-1 0 0 1 17.8359 13.4531)" fill="white"/>
<ellipse cx="0.740828" cy="0.746883" rx="0.740828" ry="0.746883" transform="matrix(-1 0 0 1 13.3672 13.4531)" fill="white"/>
<path d="M14.8127 24.6073C14.8127 24.9879 15.1216 25.2988 15.5015 25.2748C17.74 25.133 19.8867 24.3032 21.6432 22.8904C23.5792 21.3332 24.925 19.1612 25.4576 16.7344C25.9902 14.3076 25.6776 11.7717 24.5716 9.54689C23.4656 7.32208 21.6326 5.54197 19.3764 4.50155C17.1201 3.46114 14.5761 3.22288 12.166 3.82626C9.75579 4.42965 7.62413 5.83845 6.12426 7.81921C4.62438 9.79996 3.84633 12.2337 3.91905 14.7172C3.98502 16.9705 4.74771 19.1419 6.09337 20.9364C6.32176 21.2409 6.75879 21.2741 7.04832 21.0269C7.33785 20.7797 7.36992 20.346 7.14433 20.0393C6.00126 18.4855 5.35384 16.6159 5.29707 14.6769C5.23355 12.5076 5.91318 10.3816 7.22332 8.65145C8.53346 6.92125 10.3955 5.69066 12.5008 5.1636C14.6061 4.63654 16.8282 4.84466 18.7991 5.75347C20.7699 6.66228 22.371 8.21721 23.3371 10.1606C24.3032 12.104 24.5763 14.3191 24.111 16.4389C23.6458 18.5587 22.4703 20.456 20.7791 21.8162C19.2676 23.032 17.4253 23.7535 15.5014 23.893C15.1217 23.9205 14.8127 24.2266 14.8127 24.6073Z" fill="#111111"/>
<path d="M4.35246 15.4045C3.98407 15.6087 3.15703 16.0256 2.89484 16.3552C2.63265 16.6849 2.43795 17.063 2.32187 17.4678C2.20579 17.8727 2.17059 18.2965 2.21829 18.715C2.26599 19.1335 2.39565 19.5385 2.59986 19.9069C2.80408 20.2753 3.07886 20.5998 3.40851 20.862C3.73815 21.1242 4.11621 21.3189 4.5211 21.435C4.92599 21.5511 5.34978 21.5863 5.76828 21.5386C6.18677 21.4909 6.63267 21.504 6.94309 21.0902L5.40506 18.3518L4.35246 15.4045Z" fill="#111111"/>
<path d="M25.7335 15.4045C26.1019 15.6087 26.9289 16.0256 27.1911 16.3552C27.4533 16.6849 27.648 17.063 27.7641 17.4678C27.8802 17.8727 27.9153 18.2965 27.8677 18.715C27.82 19.1335 27.6903 19.5385 27.4861 19.9069C27.2819 20.2753 27.0071 20.5998 26.6774 20.862C26.3478 21.1242 25.9697 21.3189 25.5648 21.435C25.1599 21.5511 24.7362 21.5863 24.3177 21.5386C23.8992 21.4909 23.4533 21.504 23.1429 21.0902L24.6809 18.3518L25.7335 15.4045Z" fill="#111111"/>
<ellipse cx="14.7703" cy="24.8136" rx="2.37969" ry="1.65543" fill="#111111"/>
</svg>
