<svg width="35" height="36" viewBox="0 0 35 36" fill="none" xmlns="http://www.w3.org/2000/svg">
<g clip-path="url(#clip0_2168_5926)" filter="url(#filter0_d_2168_5926)">
<path fill-rule="evenodd" clip-rule="evenodd" d="M21.1687 27.473C21.701 28.0053 22.6084 27.7808 22.8311 27.0617L29.9745 3.991C30.2125 3.2226 29.4919 2.50204 28.7235 2.73996L5.65279 9.88341C4.93368 10.1061 4.70916 11.0135 5.24147 11.5458L10.9908 17.2951C11.3813 17.6856 12.0145 17.6856 12.405 17.2951L17.2698 12.4303C17.6603 12.0398 18.2934 12.0398 18.684 12.4303L20.2838 14.0301C20.6743 14.4207 20.6743 15.0538 20.2838 15.4444L15.419 20.3091C15.0285 20.6996 15.0285 21.3328 15.419 21.7233L21.1687 27.473Z" fill="#A5A4AE"/>
</g>
<defs>
<filter id="filter0_d_2168_5926" x="-1" y="0" width="38" height="38" filterUnits="userSpaceOnUse" color-interpolation-filters="sRGB">
<feFlood flood-opacity="0" result="BackgroundImageFix"/>
<feColorMatrix in="SourceAlpha" type="matrix" values="0 0 0 0 0 0 0 0 0 0 0 0 0 0 0 0 0 0 127 0" result="hardAlpha"/>
<feOffset dy="4"/>
<feGaussianBlur stdDeviation="2"/>
<feComposite in2="hardAlpha" operator="out"/>
<feColorMatrix type="matrix" values="0 0 0 0 0 0 0 0 0 0 0 0 0 0 0 0 0 0 0.25 0"/>
<feBlend mode="normal" in2="BackgroundImageFix" result="effect1_dropShadow_2168_5926"/>
<feBlend mode="normal" in="SourceGraphic" in2="effect1_dropShadow_2168_5926" result="shape"/>
</filter>
<clipPath id="clip0_2168_5926">
<rect width="30" height="30" fill="white" transform="translate(3)"/>
</clipPath>
</defs>
</svg>
