<svg width="30" height="30" viewBox="0 0 30 30" fill="none" xmlns="http://www.w3.org/2000/svg">
<path fill-rule="evenodd" clip-rule="evenodd" d="M2.63536 26.5259C2.63536 27.2787 3.43575 27.7616 4.10168 27.4105L25.4663 16.1483C26.1779 15.7732 26.1779 14.7541 25.4663 14.379L4.10168 3.11675C3.43575 2.7657 2.63536 3.24857 2.63536 4.00136L2.63536 12.1321C2.63536 12.6844 3.08308 13.1321 3.63536 13.1321L10.5152 13.1321C11.0674 13.1321 11.5152 13.5798 11.5152 14.1321L11.5152 16.3946C11.5152 16.9469 11.0674 17.3946 10.5152 17.3946L3.63536 17.3946C3.08308 17.3946 2.63536 17.8423 2.63536 18.3946L2.63536 26.5259Z" fill="#A5A4AE"/>
</svg>
