<svg width="50" height="50" viewBox="0 0 50 50" fill="none" xmlns="http://www.w3.org/2000/svg">
<rect width="50" height="50" rx="20" fill="#8E48F8"/>
<path d="M27.0694 29.8895C27.0694 30.4025 27.1656 30.7551 27.358 30.9475C27.5664 31.1398 27.903 31.236 28.3678 31.236C28.7044 31.236 29.033 31.1959 29.3536 31.1158V33.7606C28.7605 33.969 28.0713 34.0732 27.2858 34.0732C24.8173 34.0732 23.5831 32.7988 23.5831 30.2502V23.4457H21.6836V20.8971H23.5831V17.6992H27.0694V20.8971H29.2574V23.4457H27.0694V29.8895Z" fill="#111111"/>
<path d="M16.2871 17.5533C16.2871 17.0243 16.4634 16.5915 16.8161 16.2549C17.1848 15.9183 17.6656 15.75 18.2587 15.75C18.8358 15.75 19.3006 15.9183 19.6533 16.2549C20.0059 16.5915 20.1822 17.0243 20.1822 17.5533C20.1822 18.0823 20.0059 18.5151 19.6533 18.8517C19.3006 19.1723 18.8358 19.3326 18.2587 19.3326C17.6656 19.3326 17.1848 19.1723 16.8161 18.8517C16.4634 18.5151 16.2871 18.0823 16.2871 17.5533ZM16.5035 20.8954H19.9899V33.8311H16.5035V20.8954Z" fill="#111111"/>
<path d="M12.1359 29.8895C12.1359 30.4025 12.232 30.7551 12.4244 30.9475C12.6328 31.1398 12.9694 31.236 13.4342 31.236C13.7708 31.236 14.0994 31.1959 14.42 31.1158V33.7606C13.8269 33.969 13.1377 34.0732 12.3522 34.0732C9.88373 34.0732 8.64947 32.7988 8.64947 30.2502V23.4457H6.75V20.8971H8.64947V17.6992H12.1359V20.8971H14.3239V23.4457H12.1359V29.8895Z" fill="#111111"/>
<path fill-rule="evenodd" clip-rule="evenodd" d="M31.5397 23.7603C31.0588 24.7542 30.8184 25.8842 30.8184 27.1506V27.415C30.8184 28.6814 31.0588 29.8114 31.5397 30.8052C32.0206 31.7991 32.7258 32.5765 33.6555 33.1375C34.5852 33.6985 35.6913 33.979 36.9736 33.979C38.2399 33.979 39.3299 33.6985 40.2436 33.1375C41.1733 32.5604 41.8786 31.783 42.3595 30.8052C42.8403 29.8114 43.0808 28.6814 43.0808 27.415V27.1506C43.0808 25.8842 42.8403 24.7542 42.3595 23.7603C41.8786 22.7665 41.1733 21.9891 40.2436 21.4281C39.3139 20.851 38.2159 20.5625 36.9496 20.5625C35.6672 20.5625 34.5612 20.851 33.6315 21.4281C32.7178 21.9891 32.0206 22.7665 31.5397 23.7603Z" fill="#111111"/>
<path d="M38.0888 24.3117L38.1096 26.3188L40.3428 25.9246L38.6938 27.4813L40.2919 28.6957L38.2848 28.7165L38.9743 31.5373L37.1223 29.3007L35.9079 30.8988L35.8871 28.8917L33.8984 29.163L35.3029 27.7292L33.7048 26.5148L35.7119 26.494L34.793 22.9688L36.8744 25.9098L38.0888 24.3117Z" fill="#DCF333"/>
</svg>
