<svg width="162" height="128" viewBox="0 0 162 128" fill="none" xmlns="http://www.w3.org/2000/svg">
<path d="M89.6162 56.5503C89.6162 58.602 90.0009 60.0126 90.7703 60.782C91.6038 61.5514 92.9503 61.9361 94.8097 61.9361C96.1561 61.9361 97.4705 61.7758 98.7529 61.4552V72.0346C96.3805 72.8681 93.6235 73.2849 90.4817 73.2849C80.6077 73.2849 75.6706 68.1875 75.6706 57.9929V30.7751H68.0728V20.5805H75.6706V7.78906H89.6162V20.5805H98.3682V30.7751H89.6162V56.5503Z" fill="#111111"/>
<path d="M46.4872 7.21319C46.4872 5.09732 47.1925 3.36616 48.6031 2.0197C50.0777 0.673233 52.0013 0 54.3736 0C56.6818 0 58.5412 0.673233 59.9518 2.0197C61.3624 3.36616 62.0677 5.09732 62.0677 7.21319C62.0677 9.32906 61.3624 11.0602 59.9518 12.4067C58.5412 13.689 56.6818 14.3302 54.3736 14.3302C52.0013 14.3302 50.0777 13.689 48.6031 12.4067C47.1925 11.0602 46.4872 9.32906 46.4872 7.21319ZM47.3528 20.5816H61.2983V72.3243H47.3528V20.5816Z" fill="#111111"/>
<path d="M29.8819 56.5503C29.8819 58.602 30.2666 60.0126 31.036 60.782C31.8695 61.5514 33.216 61.9361 35.0754 61.9361C36.4219 61.9361 37.7363 61.7758 39.0186 61.4552V72.0346C36.6463 72.8681 33.8892 73.2849 30.7475 73.2849C20.8734 73.2849 15.9364 68.1875 15.9364 57.9929V30.7751H8.3385V20.5805H15.9364V7.78906H29.8819V20.5805H38.6339V30.7751H29.8819V56.5503Z" fill="#111111"/>
<path fill-rule="evenodd" clip-rule="evenodd" d="M107.497 32.0453C105.573 36.0206 104.612 40.5408 104.612 45.6061V46.664C104.612 51.7293 105.573 56.2496 107.497 60.2248C109.42 64.2001 112.242 67.3098 115.96 69.5539C119.679 71.798 124.103 72.9201 129.233 72.9201C134.298 72.9201 138.658 71.798 142.313 69.5539C146.031 67.2457 148.853 64.136 150.776 60.2248C152.7 56.2496 153.661 51.7293 153.661 46.664V45.6061C153.661 40.5408 152.7 36.0206 150.776 32.0453C148.853 28.07 146.031 24.9603 142.313 22.7162C138.594 20.408 134.202 19.2539 129.137 19.2539C124.007 19.2539 119.583 20.408 115.864 22.7162C112.21 24.9603 109.42 28.07 107.497 32.0453Z" fill="#111111"/>
<path d="M133.696 34.2528L133.779 42.2809L142.712 40.7042L136.116 46.9312L142.508 51.7888L134.48 51.8718L137.238 63.155L129.83 54.2087L124.972 60.6009L124.889 52.5728L116.935 53.658L122.553 47.9225L116.16 43.0649L124.188 42.9819L120.513 28.8809L128.839 40.645L133.696 34.2528Z" fill="#DCF333"/>
<path d="M11.472 107.741H4.44V110.717H10.608V113.213H4.44V116.645C7.272 116.613 9.848 116.421 12.168 116.069L12.504 118.685C11.096 118.909 9.672 119.053 8.232 119.117C6.808 119.181 5.08 119.213 3.048 119.213H1.248V105.077H11.472V107.741ZM16.944 123.725H13.704V103.469H16.944V123.725ZM29.9391 105.989C29.9391 109.125 29.2751 111.909 27.9471 114.341C26.6351 116.773 24.3711 118.789 21.1551 120.389L20.1951 118.949C23.4911 117.285 25.7471 115.109 26.9631 112.421L20.5311 113.021L20.2431 111.341L27.5631 110.861C27.8831 109.805 28.0751 108.693 28.1391 107.525H21.2031V105.989H29.9391ZM35.4351 123.629H33.6591V103.925H35.4351V123.629ZM48.3739 107.309H41.3179V111.197H47.9659V112.757H41.3179V117.341C43.0299 117.341 44.5259 117.301 45.8059 117.221C47.0859 117.125 48.4139 116.957 49.7899 116.717L49.9579 118.277C48.5979 118.533 47.2459 118.701 45.9019 118.781C44.5739 118.861 42.9499 118.901 41.0299 118.901H39.5179V105.725H48.3739V107.309ZM53.3179 111.797H56.4379V113.405H53.3179V123.629H51.5419V103.925H53.3179V111.797ZM67.3367 105.989C67.3367 109.125 66.6887 111.901 65.3927 114.317C64.0967 116.717 61.8567 118.733 58.6727 120.365L57.6407 118.949C60.9687 117.269 63.2167 115.093 64.3847 112.421L58.0247 113.045L57.7607 111.341L64.9607 110.861C65.2487 109.869 65.4327 108.757 65.5127 107.525H58.7447V105.989H67.3367ZM72.1607 111.869H75.1607V113.453H72.1607V123.605H70.3847V103.925H72.1607V111.869ZM97.8086 115.901H92.3126V118.949H99.7286V121.565H81.7046V118.949H89.0966V115.901H83.7686V104.765H97.7126V107.357H87.0086V109.037H97.2326V111.557H87.0086V113.309H97.8086V115.901ZM118.508 116.693H101.252V115.109H109.004V113.069H103.46V108.101H114.548V106.085H103.436V104.549H116.3V109.517H105.26V111.581H116.684V113.069H110.756V115.109H118.508V116.693ZM116.708 123.437H103.508V117.917H105.308V121.853H116.708V123.437ZM141.636 123.629H139.932V113.333H137.292V122.597H135.612V104.381H137.292V111.773H139.932V103.925H141.636V123.629ZM133.236 107.861H127.956V117.173C129.316 117.173 130.468 117.141 131.412 117.077C132.356 116.997 133.308 116.845 134.268 116.621L134.46 118.205C133.404 118.445 132.372 118.605 131.364 118.685C130.356 118.749 129.036 118.781 127.404 118.781H126.156V106.301H133.236V107.861ZM160.023 114.005H158.223V112.013H153.255V110.501H158.223V108.269H153.543C152.967 109.789 151.975 111.069 150.567 112.109C149.159 113.133 147.399 113.909 145.287 114.437L144.639 112.877C146.927 112.333 148.711 111.509 149.991 110.405C151.287 109.301 152.015 107.989 152.175 106.469H145.599V104.885H154.143C154.143 105.573 154.087 106.189 153.975 106.733H158.223V103.925H160.023V114.005ZM160.023 119.741H149.559V121.877H160.623V123.437H147.783V118.277H158.223V116.357H147.759V114.821H160.023V119.741Z" fill="#111111" fill-opacity="0.8"/>
</svg>
