<svg width="21" height="20" viewBox="0 0 21 20" fill="none" xmlns="http://www.w3.org/2000/svg">
<path d="M4.12003 5.83464H16.88C17.4382 5.83464 17.8386 5.29652 17.6782 4.76185L16.9282 2.26185C16.8224 1.90936 16.498 1.66797 16.13 1.66797H4.87003C4.50202 1.66797 4.17758 1.90936 4.07184 2.26185L3.32184 4.76185C3.16143 5.29652 3.56181 5.83464 4.12003 5.83464Z" fill="#111111" stroke="#DCF333" stroke-width="0.833333"/>
<path d="M8.41406 3.75195H12.5807" stroke="#DCF333" stroke-width="0.833333" stroke-linecap="round"/>
<path d="M3 17.3675V12.6V8.4697C3 7.93523 3.43327 7.50195 3.96774 7.50195H17.0323C17.5667 7.50195 18 7.93523 18 8.46969V17.3675C18 17.902 17.5667 18.3353 17.0323 18.3353H3.96774C3.43327 18.3353 3 17.902 3 17.3675Z" fill="#111111" stroke="#DCF333" stroke-width="0.967742"/>
<path d="M11.8478 9.03799L11.8715 11.3335L14.4258 10.8827L12.5397 12.6632L14.3675 14.0522L12.072 14.0759L12.8605 17.3022L10.7423 14.7441L9.3533 16.5719L9.32955 14.2764L7.05496 14.5867L8.66135 12.9467L6.83357 11.5577L9.1291 11.534L8.07812 7.50195L10.4588 10.8658L11.8478 9.03799Z" fill="#DCF333"/>
</svg>
